<svg xmlns="http://www.w3.org/2000/svg" xmlns:xlink="http://www.w3.org/1999/xlink" width="500" zoomAndPan="magnify" viewBox="0 0 375 374.999991" height="500" preserveAspectRatio="xMidYMid meet" version="1.0"><defs><filter x="0%" y="0%" width="100%" height="100%" id="id1"><feColorMatrix values="0 0 0 0 1 0 0 0 0 1 0 0 0 0 1 0 0 0 1 0" color-interpolation-filters="sRGB"/></filter><g/><clipPath id="id2"><path d="M 134 211 L 255 211 L 255 224.445312 L 134 224.445312 Z M 134 211 " clip-rule="nonzero"/></clipPath><mask id="id3"><g filter="url(#id1)"><rect x="-37.5" width="450" fill="#000000" y="-37.499999" height="449.999989" fill-opacity="0.2"/></g></mask><clipPath id="id4"><rect x="0" width="72" y="0" height="41"/></clipPath></defs><g clip-path="url(#id2)"><path fill="#102770" d="M 254.042969 218.152344 C 254.042969 218.355469 253.945312 218.558594 253.753906 218.761719 C 253.5625 218.964844 253.277344 219.167969 252.894531 219.367188 C 252.511719 219.566406 252.039062 219.765625 251.472656 219.960938 C 250.902344 220.15625 250.246094 220.347656 249.5 220.535156 C 248.75 220.722656 247.914062 220.90625 246.992188 221.085938 C 246.074219 221.269531 245.070312 221.441406 243.984375 221.613281 C 242.898438 221.78125 241.734375 221.945312 240.492188 222.101562 C 239.253906 222.261719 237.941406 222.414062 236.558594 222.554688 C 235.175781 222.699219 233.730469 222.835938 232.21875 222.96875 C 230.707031 223.097656 229.140625 223.21875 227.515625 223.332031 C 225.890625 223.445312 224.214844 223.550781 222.492188 223.644531 C 220.765625 223.742188 219.003906 223.828125 217.195312 223.90625 C 215.390625 223.984375 213.550781 224.054688 211.683594 224.113281 C 209.8125 224.171875 207.917969 224.222656 206 224.261719 C 204.082031 224.300781 202.152344 224.332031 200.207031 224.351562 C 198.261719 224.371094 196.3125 224.382812 194.355469 224.382812 C 192.402344 224.382812 190.449219 224.371094 188.503906 224.351562 C 186.558594 224.332031 184.628906 224.300781 182.710938 224.261719 C 180.792969 224.222656 178.902344 224.171875 177.03125 224.113281 C 175.160156 224.054688 173.320312 223.984375 171.515625 223.90625 C 169.710938 223.828125 167.945312 223.742188 166.21875 223.644531 C 164.496094 223.550781 162.820312 223.445312 161.195312 223.332031 C 159.570312 223.21875 158.003906 223.097656 156.492188 222.96875 C 154.980469 222.835938 153.535156 222.699219 152.152344 222.554688 C 150.769531 222.414062 149.457031 222.261719 148.21875 222.101562 C 146.976562 221.945312 145.816406 221.78125 144.730469 221.613281 C 143.644531 221.441406 142.640625 221.269531 141.71875 221.085938 C 140.796875 220.90625 139.960938 220.722656 139.214844 220.535156 C 138.464844 220.347656 137.808594 220.15625 137.242188 219.960938 C 136.671875 219.765625 136.199219 219.566406 135.816406 219.367188 C 135.4375 219.167969 135.148438 218.964844 134.957031 218.761719 C 134.765625 218.558594 134.671875 218.355469 134.671875 218.152344 C 134.671875 217.945312 134.765625 217.742188 134.957031 217.539062 C 135.148438 217.335938 135.4375 217.136719 135.816406 216.933594 C 136.199219 216.734375 136.671875 216.539062 137.242188 216.34375 C 137.808594 216.148438 138.464844 215.953125 139.214844 215.765625 C 139.960938 215.578125 140.796875 215.394531 141.71875 215.214844 C 142.640625 215.035156 143.644531 214.859375 144.730469 214.6875 C 145.816406 214.519531 146.976562 214.355469 148.21875 214.199219 C 149.457031 214.039062 150.769531 213.890625 152.152344 213.746094 C 153.535156 213.601562 154.980469 213.464844 156.492188 213.335938 C 158.003906 213.203125 159.570312 213.082031 161.195312 212.96875 C 162.820312 212.855469 164.496094 212.75 166.21875 212.65625 C 167.945312 212.558594 169.710938 212.472656 171.515625 212.394531 C 173.320312 212.316406 175.160156 212.246094 177.03125 212.1875 C 178.902344 212.128906 180.792969 212.078125 182.710938 212.039062 C 184.628906 212 186.558594 211.96875 188.503906 211.949219 C 190.449219 211.929688 192.402344 211.917969 194.355469 211.917969 C 196.3125 211.917969 198.261719 211.929688 200.207031 211.949219 C 202.152344 211.96875 204.082031 212 206 212.039062 C 207.917969 212.078125 209.8125 212.128906 211.683594 212.1875 C 213.550781 212.246094 215.390625 212.316406 217.195312 212.394531 C 219.003906 212.472656 220.765625 212.558594 222.492188 212.65625 C 224.214844 212.75 225.890625 212.855469 227.515625 212.96875 C 229.140625 213.082031 230.707031 213.203125 232.21875 213.335938 C 233.730469 213.464844 235.175781 213.601562 236.558594 213.746094 C 237.941406 213.890625 239.253906 214.039062 240.492188 214.199219 C 241.734375 214.355469 242.898438 214.519531 243.984375 214.6875 C 245.070312 214.859375 246.074219 215.035156 246.992188 215.214844 C 247.914062 215.394531 248.75 215.578125 249.5 215.765625 C 250.246094 215.953125 250.902344 216.148438 251.472656 216.34375 C 252.039062 216.539062 252.511719 216.734375 252.894531 216.933594 C 253.277344 217.136719 253.5625 217.335938 253.753906 217.539062 C 253.945312 217.742188 254.042969 217.945312 254.042969 218.152344 Z M 254.042969 218.152344 " fill-opacity="0.2" fill-rule="nonzero"/></g><path fill="#19b5fe" d="M 228.71875 160.761719 C 228.96875 179.78125 213.921875 197.488281 192.875 198.554688 C 191.890625 198.636719 190.984375 198.636719 190 198.636719 C 189.835938 198.636719 189.753906 198.636719 189.585938 198.636719 C 189.175781 198.636719 188.683594 198.636719 188.273438 198.636719 C 173.554688 198.0625 164.183594 191.011719 159.664062 182.242188 C 156.785156 176.746094 155.796875 170.679688 156.539062 165.1875 C 158.59375 150.101562 164.429688 138.871094 173.308594 132.230469 C 181.285156 126.324219 211.042969 119.847656 224.117188 143.871094 C 227.242188 149.363281 228.71875 155.101562 228.71875 160.761719 Z M 228.71875 160.761719 " fill-opacity="1" fill-rule="nonzero"/><path fill="#ffffff" d="M 172.160156 135.34375 C 180.132812 129.441406 209.894531 122.964844 222.964844 146.988281 C 225.925781 152.480469 227.324219 158.21875 227.40625 163.875 C 227.488281 168.140625 226.746094 172.320312 225.351562 176.335938 C 227.570312 171.5 228.71875 166.171875 228.636719 160.84375 C 228.554688 155.183594 227.160156 149.445312 224.199219 143.953125 C 211.128906 119.929688 181.367188 126.40625 173.390625 132.3125 C 167.472656 136.738281 162.867188 143.132812 159.910156 151.414062 C 162.785156 144.527344 166.980469 139.117188 172.160156 135.34375 Z M 172.160156 135.34375 " fill-opacity="0.6" fill-rule="nonzero"/><path fill="#7fdcff" d="M 217.785156 187.160156 C 211.457031 193.636719 202.742188 197.980469 192.628906 198.472656 C 191.726562 198.554688 190.902344 198.554688 190 198.554688 C 189.835938 198.554688 189.753906 198.554688 189.585938 198.554688 C 189.175781 198.554688 188.683594 198.554688 188.273438 198.554688 C 188.273438 198.554688 188.273438 198.554688 188.355469 198.554688 C 204.058594 195.523438 213.429688 184.863281 214.496094 171.089844 C 214.992188 165.1875 213.921875 158.628906 211.210938 151.988281 C 207.261719 142.3125 200.441406 136.574219 193.203125 133.867188 C 193.453125 133.867188 213.265625 135.34375 216.554688 151.988281 C 217.128906 154.773438 219.429688 158.546875 221.238281 162.972656 C 223.953125 169.613281 225.433594 177.976562 217.785156 187.160156 Z M 217.785156 187.160156 " fill-opacity="1" fill-rule="nonzero"/><path fill="#102770" d="M 190.164062 199.621094 C 176.105469 199.621094 167.800781 193.964844 163.28125 189.046875 C 157.277344 182.570312 154.402344 173.550781 155.550781 164.941406 C 157.605469 149.773438 163.609375 138.132812 172.816406 131.328125 C 177.585938 127.800781 190.492188 123.785156 202.988281 126.570312 C 212.6875 128.703125 220.417969 134.523438 225.183594 143.378906 C 231.433594 154.773438 231.269531 168.386719 224.855469 179.78125 C 218.28125 191.503906 206.277344 198.882812 192.875 199.539062 C 191.972656 199.621094 191.066406 199.621094 190.164062 199.621094 Z M 194.191406 127.800781 C 185.394531 127.800781 177.503906 130.507812 174.132812 133.050781 C 165.417969 139.527344 159.746094 150.675781 157.773438 165.269531 C 156.703125 173.222656 159.332031 181.585938 164.925781 187.652344 C 169.117188 192.242188 176.925781 197.488281 190.246094 197.488281 C 191.066406 197.488281 191.972656 197.488281 192.875 197.40625 C 205.535156 196.753906 216.800781 189.785156 223.046875 178.714844 C 229.132812 167.976562 229.214844 155.101562 223.375 144.363281 C 218.773438 136 211.785156 130.671875 202.578125 128.703125 C 199.78125 128.046875 196.90625 127.800781 194.191406 127.800781 Z M 173.472656 132.230469 Z M 173.472656 132.230469 " fill-opacity="1" fill-rule="nonzero"/><path fill="#102770" d="M 217.457031 188.800781 C 217.210938 188.800781 216.964844 188.71875 216.800781 188.554688 C 216.386719 188.226562 216.304688 187.570312 216.71875 187.160156 C 226.746094 175.683594 221.898438 165.679688 218.445312 158.464844 C 217.292969 156.085938 216.304688 154.039062 215.976562 152.234375 C 214.664062 145.675781 210.550781 140.753906 203.726562 137.640625 C 198.546875 135.261719 193.617188 134.933594 193.535156 134.933594 C 192.957031 134.933594 192.546875 134.441406 192.628906 133.867188 C 192.628906 133.296875 193.121094 132.886719 193.699219 132.96875 C 193.945312 132.96875 198.960938 133.375 204.46875 135.835938 C 211.867188 139.199219 216.554688 144.691406 217.949219 151.90625 C 218.28125 153.464844 219.183594 155.429688 220.253906 157.644531 C 223.789062 165.023438 229.214844 176.089844 218.28125 188.554688 C 218.03125 188.636719 217.703125 188.800781 217.457031 188.800781 Z M 217.457031 188.800781 " fill-opacity="1" fill-rule="nonzero"/><g mask="url(#id3)"><g transform="matrix(1, 0, 0, 1, 158, 159)"><g clip-path="url(#id4)"><path fill="#1a1a5a" d="M 70.71875 1.761719 C 70.96875 20.78125 55.921875 38.488281 34.875 39.554688 C 33.890625 39.636719 32.984375 39.636719 32 39.636719 C 31.835938 39.636719 31.753906 39.636719 31.585938 39.636719 C 31.175781 39.636719 30.683594 39.636719 30.273438 39.636719 C 30.273438 39.636719 30.273438 39.636719 30.355469 39.636719 C 15.636719 39.0625 6.265625 32.011719 1.746094 23.242188 C 28.792969 33.652344 47.371094 21.355469 56.578125 12.171875 C 61.019531 7.746094 63.320312 4.054688 63.320312 4.054688 C 66.691406 5.613281 69.074219 4.054688 70.71875 1.761719 Z M 70.71875 1.761719 " fill-opacity="1" fill-rule="nonzero"/><path fill="#102770" d="M 32.328125 39.71875 C 32.082031 39.71875 31.917969 39.71875 31.667969 39.71875 C 31.257812 39.71875 30.765625 39.71875 30.355469 39.71875 L 28.957031 39.636719 L 29.121094 39.636719 C 12.1875 38.570312 4.621094 28.980469 1.664062 23.242188 L 1.5 22.914062 L 1.828125 23.078125 C 29.121094 33.570312 47.785156 20.699219 56.496094 12.007812 C 60.9375 7.664062 63.15625 3.972656 63.238281 3.890625 L 63.320312 3.808594 L 63.402344 3.890625 C 66.199219 5.285156 68.664062 4.546875 70.636719 1.761719 L 70.882812 1.433594 L 70.882812 1.84375 C 70.96875 11.269531 67.433594 20.453125 60.855469 27.585938 C 54.113281 34.964844 44.90625 39.226562 34.875 39.800781 C 33.972656 39.71875 33.148438 39.71875 32.328125 39.71875 Z M 30.355469 39.390625 C 30.765625 39.390625 31.175781 39.390625 31.667969 39.390625 C 31.835938 39.390625 31.917969 39.390625 32.082031 39.390625 C 32.984375 39.390625 33.972656 39.390625 34.875 39.308594 C 54.6875 38.324219 70.636719 21.683594 70.636719 2.089844 C 68.582031 4.628906 66.117188 5.367188 63.402344 4.054688 C 62.992188 4.710938 60.691406 8.15625 56.746094 12.089844 C 52.46875 16.355469 45.480469 22.011719 35.945312 25.042969 C 25.339844 28.40625 13.996094 27.832031 2.15625 23.40625 C 5.199219 29.308594 13.007812 38.734375 30.355469 39.390625 Z M 30.355469 39.390625 " fill-opacity="1" fill-rule="nonzero"/></g></g></g><path fill="#b5ea24" d="M 235.625 148.050781 C 234.96875 148.542969 234.3125 148.953125 233.652344 149.363281 L 213.839844 161.90625 L 203.5625 143.214844 L 212.851562 135.507812 L 220.582031 129.113281 C 222.226562 127.964844 223.707031 127.0625 224.855469 126.242188 C 230.609375 122.472656 249.191406 115.421875 252.398438 122.71875 C 255.519531 130.097656 246.640625 140.425781 235.625 148.050781 Z M 235.625 148.050781 " fill-opacity="1" fill-rule="nonzero"/><path fill="#102770" d="M 251.738281 122.800781 C 251.738281 122.800781 251.738281 122.71875 251.738281 122.71875 C 249.4375 129.851562 241.628906 137.804688 232.585938 144.199219 C 231.84375 144.691406 231.105469 145.265625 230.28125 145.675781 L 211.042969 157.972656 L 213.183594 161.824219 L 232.996094 149.28125 C 233.652344 148.871094 234.3125 148.460938 234.96875 147.96875 C 246.066406 140.425781 254.945312 130.097656 251.738281 122.800781 Z M 251.738281 122.800781 " fill-opacity="0.2" fill-rule="nonzero"/><path fill="#ffffff" d="M 223.953125 130.753906 C 233.078125 124.113281 248.203125 118.046875 251.328125 125.34375 C 251.902344 126.570312 251.738281 128.457031 250.917969 130.753906 C 252.480469 127.636719 252.890625 124.605469 251.738281 121.980469 C 248.535156 114.683594 229.953125 121.652344 224.199219 125.507812 C 223.046875 126.242188 221.566406 127.226562 219.921875 128.375 L 212.195312 134.769531 L 202.988281 142.394531 L 204.386719 144.9375 C 204.386719 144.855469 213.675781 138.296875 223.953125 130.753906 Z M 223.953125 130.753906 " fill-opacity="0.6" fill-rule="nonzero"/><path fill="#102770" d="M 213.839844 162.972656 C 213.757812 162.972656 213.675781 162.972656 213.59375 162.972656 C 213.265625 162.890625 213.019531 162.726562 212.9375 162.480469 L 202.660156 143.871094 C 202.414062 143.378906 202.496094 142.886719 202.90625 142.558594 L 219.921875 128.457031 C 219.921875 128.457031 220.007812 128.457031 220.007812 128.375 C 221.15625 127.554688 222.226562 126.816406 223.210938 126.242188 C 223.625 126 223.953125 125.753906 224.28125 125.507812 C 229.132812 122.308594 242.367188 117.0625 249.273438 119.109375 C 251.246094 119.683594 252.644531 120.832031 253.382812 122.472656 C 257 130.835938 246.972656 141.65625 236.285156 149.035156 C 235.625 149.527344 234.886719 149.9375 234.226562 150.347656 L 214.414062 162.890625 C 214.25 162.890625 214.003906 162.972656 213.839844 162.972656 Z M 204.960938 143.460938 L 214.25 160.351562 L 233.078125 148.378906 C 233.734375 147.96875 234.394531 147.558594 235.050781 147.070312 C 244.503906 140.507812 254.535156 130.261719 251.410156 123.128906 C 250.917969 122.0625 250.09375 121.324219 248.699219 120.996094 C 242.695312 119.191406 230.28125 123.949219 225.515625 127.144531 C 225.183594 127.390625 224.773438 127.636719 224.445312 127.882812 C 223.539062 128.457031 222.472656 129.195312 221.320312 129.933594 Z M 235.625 148.050781 Z M 235.625 148.050781 " fill-opacity="1" fill-rule="nonzero"/><path fill="#102770" d="M 212.851562 136.574219 C 212.523438 136.574219 212.277344 136.492188 212.03125 136.246094 C 211.621094 135.835938 211.621094 135.179688 212.03125 134.769531 C 214.003906 132.640625 216.554688 130.507812 219.921875 128.210938 C 220.417969 127.882812 221.074219 127.964844 221.402344 128.457031 C 221.730469 128.949219 221.648438 129.605469 221.238281 129.933594 L 213.511719 136.328125 C 213.347656 136.492188 213.101562 136.574219 212.851562 136.574219 Z M 212.851562 136.574219 " fill-opacity="1" fill-rule="nonzero"/><path fill="#b5ea24" d="M 234.476562 209.707031 C 234.476562 209.789062 234.394531 209.871094 234.394531 209.953125 C 233.40625 212.164062 231.84375 213.640625 230.859375 214.378906 C 230.777344 214.460938 230.695312 214.542969 230.609375 214.542969 C 230.28125 214.789062 229.871094 215.035156 229.460938 215.199219 C 229.296875 215.28125 229.050781 215.363281 228.800781 215.445312 C 227.40625 215.9375 225.019531 216.59375 222.308594 216.757812 C 221.648438 216.839844 221.074219 216.839844 220.417969 216.839844 C 218.691406 216.839844 216.882812 216.511719 215.238281 215.855469 C 215.15625 215.855469 215.15625 215.855469 215.074219 215.773438 C 208.414062 213.066406 200.769531 188.964844 200.769531 188.964844 L 213.675781 176.253906 L 214.332031 175.601562 C 214.332031 175.601562 216.222656 177.238281 218.855469 179.78125 C 224.199219 184.863281 232.503906 193.71875 234.640625 200.277344 C 234.640625 200.359375 234.722656 200.441406 234.722656 200.523438 C 235.871094 204.457031 235.378906 207.410156 234.476562 209.707031 Z M 234.476562 209.707031 " fill-opacity="1" fill-rule="nonzero"/><path fill="#ffffff" d="M 234.476562 209.707031 C 233.324219 203.96875 230.527344 198.472656 227.160156 193.636719 C 223.871094 188.882812 220.089844 184.617188 216.472656 180.109375 C 215.8125 179.289062 214.167969 177.730469 213.511719 176.417969 L 214.167969 175.765625 C 214.167969 175.765625 216.058594 177.402344 218.691406 179.945312 C 224.035156 185.027344 232.335938 193.882812 234.476562 200.441406 C 234.476562 200.523438 234.558594 200.605469 234.558594 200.6875 C 235.871094 204.457031 235.378906 207.410156 234.476562 209.707031 Z M 234.476562 209.707031 " fill-opacity="0.6" fill-rule="nonzero"/><path fill="#102770" d="M 234.3125 209.953125 C 233.324219 212.164062 231.761719 213.640625 230.777344 214.378906 C 230.695312 214.460938 230.609375 214.542969 230.527344 214.542969 C 230.199219 214.789062 229.789062 215.035156 229.378906 215.199219 C 229.214844 215.28125 228.96875 215.363281 228.71875 215.445312 C 227.324219 215.9375 224.9375 216.59375 222.226562 216.757812 C 221.566406 216.839844 220.992188 216.839844 220.335938 216.839844 C 218.609375 216.839844 216.800781 216.511719 215.15625 215.855469 C 215.074219 215.855469 215.074219 215.855469 214.992188 215.773438 C 208.332031 213.066406 200.6875 188.964844 200.6875 188.964844 L 214.25 175.601562 C 214.25 175.601562 216.140625 177.238281 218.773438 179.78125 C 219.019531 182.242188 217.703125 185.273438 215.730469 187.980469 C 212.03125 192.980469 212.359375 199.949219 216.636719 204.539062 C 220.253906 208.394531 226.007812 209.625 234.558594 200.359375 C 234.558594 200.441406 234.640625 200.523438 234.640625 200.605469 C 235.871094 204.621094 235.378906 207.65625 234.3125 209.953125 Z M 234.3125 209.953125 " fill-opacity="0.2" fill-rule="nonzero"/><path fill="#102770" d="M 220.664062 217.90625 C 220.5 217.90625 220.335938 217.90625 220.171875 217.90625 C 218.113281 217.824219 216.304688 217.496094 214.664062 216.839844 C 214.578125 216.839844 214.578125 216.839844 214.496094 216.757812 C 207.507812 213.96875 200.355469 191.832031 199.617188 189.292969 C 199.535156 188.882812 199.617188 188.472656 199.863281 188.226562 L 213.429688 174.863281 C 213.839844 174.453125 214.496094 174.453125 214.910156 174.78125 C 215.648438 175.4375 232.585938 190.191406 235.707031 200.277344 C 236.859375 203.886719 236.695312 207.328125 235.296875 210.28125 C 235.296875 210.28125 235.296875 210.28125 235.296875 210.363281 C 234.226562 212.738281 232.585938 214.296875 231.433594 215.199219 C 231.351562 215.28125 231.269531 215.28125 231.269531 215.363281 L 231.1875 215.445312 C 230.695312 215.773438 230.199219 216.019531 229.707031 216.265625 C 229.542969 216.347656 229.296875 216.429688 228.96875 216.511719 C 227.40625 217.003906 224.9375 217.660156 222.144531 217.90625 C 221.730469 217.90625 221.15625 217.90625 220.664062 217.90625 Z M 201.917969 189.292969 C 204.140625 196.261719 210.46875 212.738281 215.402344 214.789062 C 215.402344 214.789062 215.484375 214.789062 215.484375 214.789062 C 216.882812 215.363281 218.527344 215.609375 220.253906 215.691406 C 220.828125 215.691406 221.402344 215.691406 222.0625 215.609375 C 224.773438 215.445312 227.160156 214.707031 228.308594 214.378906 C 228.554688 214.296875 228.800781 214.214844 228.96875 214.132812 C 229.296875 214.050781 229.625 213.804688 229.871094 213.640625 L 229.953125 213.558594 C 230.035156 213.558594 230.035156 213.476562 230.117188 213.394531 C 230.941406 212.738281 232.335938 211.429688 233.324219 209.378906 C 233.324219 209.378906 233.324219 209.378906 233.324219 209.296875 C 234.476562 206.753906 234.558594 203.886719 233.652344 200.769531 C 231.105469 192.40625 217.621094 179.945312 214.25 176.910156 Z M 234.3125 209.953125 Z M 234.3125 209.953125 " fill-opacity="1" fill-rule="nonzero"/><path fill="#ffffff" d="M 228.800781 214.378906 C 228.800781 214.707031 228.71875 215.117188 228.636719 215.445312 C 227.242188 215.9375 224.855469 216.59375 222.144531 216.757812 C 221.648438 216.101562 221.320312 215.28125 221.320312 214.378906 C 221.320312 212.328125 222.964844 210.609375 225.101562 210.609375 C 226.5 210.609375 227.734375 211.429688 228.390625 212.574219 C 228.390625 212.574219 228.390625 212.65625 228.472656 212.65625 C 228.636719 213.230469 228.800781 213.804688 228.800781 214.378906 Z M 228.800781 214.378906 " fill-opacity="1" fill-rule="nonzero"/><path fill="#102770" d="M 222.0625 216.921875 C 221.484375 216.183594 221.15625 215.28125 221.15625 214.378906 C 221.15625 212.246094 222.882812 210.527344 225.019531 210.527344 C 226.417969 210.527344 227.734375 211.265625 228.472656 212.574219 C 228.472656 212.65625 228.472656 212.65625 228.554688 212.65625 C 228.800781 213.230469 228.96875 213.804688 228.96875 214.378906 C 228.96875 214.707031 228.882812 215.117188 228.800781 215.445312 L 228.800781 215.527344 L 228.71875 215.527344 C 227.160156 216.101562 224.855469 216.757812 222.0625 216.921875 Z M 225.019531 210.855469 C 223.046875 210.855469 221.402344 212.492188 221.402344 214.460938 C 221.402344 215.28125 221.648438 216.019531 222.144531 216.675781 C 224.855469 216.511719 227.242188 215.773438 228.472656 215.363281 C 228.554688 215.035156 228.554688 214.707031 228.554688 214.460938 C 228.554688 213.886719 228.390625 213.3125 228.144531 212.820312 C 228.144531 212.820312 228.0625 212.738281 228.0625 212.65625 C 227.570312 211.507812 226.335938 210.855469 225.019531 210.855469 Z M 225.019531 210.855469 " fill-opacity="1" fill-rule="nonzero"/><path fill="#ffffff" d="M 234.3125 209.953125 C 233.324219 212.164062 231.761719 213.640625 230.777344 214.378906 C 229.707031 214.214844 228.882812 213.640625 228.390625 212.738281 C 228.390625 212.738281 228.308594 212.65625 228.308594 212.65625 C 228.0625 212.246094 227.980469 211.753906 227.980469 211.183594 C 227.980469 209.378906 229.460938 207.902344 231.269531 207.902344 C 232.667969 207.902344 233.816406 208.722656 234.3125 209.953125 Z M 234.3125 209.953125 " fill-opacity="1" fill-rule="nonzero"/><path fill="#102770" d="M 230.859375 214.542969 C 229.789062 214.378906 228.800781 213.722656 228.308594 212.820312 C 228.308594 212.820312 228.308594 212.820312 228.308594 212.738281 L 228.308594 212.65625 C 228.0625 212.164062 227.980469 211.671875 227.980469 211.183594 C 227.980469 209.296875 229.542969 207.738281 231.433594 207.738281 C 232.832031 207.738281 234.0625 208.558594 234.640625 209.871094 L 234.640625 209.953125 C 233.40625 212.164062 231.925781 213.640625 230.859375 214.542969 Z M 228.554688 212.65625 C 229.050781 213.476562 229.871094 214.050781 230.777344 214.214844 C 231.597656 213.558594 233.160156 212.082031 234.144531 209.953125 C 233.652344 208.804688 232.503906 208.066406 231.269531 208.066406 C 229.542969 208.066406 228.144531 209.460938 228.144531 211.183594 C 228.144531 211.671875 228.226562 212.082031 228.472656 212.574219 L 228.472656 212.65625 C 228.472656 212.574219 228.472656 212.65625 228.554688 212.65625 Z M 228.554688 212.65625 " fill-opacity="1" fill-rule="nonzero"/><path fill="#ffffff" d="M 221.320312 214.378906 C 221.320312 215.363281 220.910156 216.183594 220.253906 216.757812 C 218.527344 216.757812 216.71875 216.429688 215.074219 215.773438 C 214.828125 215.363281 214.746094 214.871094 214.746094 214.378906 C 214.746094 212.574219 216.222656 211.101562 218.03125 211.101562 C 219.839844 211.183594 221.320312 212.574219 221.320312 214.378906 Z M 221.320312 214.378906 " fill-opacity="1" fill-rule="nonzero"/><path fill="#102770" d="M 220.335938 217.003906 C 218.363281 216.921875 216.636719 216.59375 215.074219 216.019531 L 214.992188 216.019531 L 214.992188 215.9375 C 214.746094 215.445312 214.664062 214.953125 214.664062 214.460938 C 214.664062 212.574219 216.222656 211.019531 218.113281 211.019531 C 220.007812 211.019531 221.566406 212.574219 221.566406 214.460938 C 221.402344 215.363281 221.074219 216.265625 220.335938 217.003906 Z M 215.15625 215.773438 C 216.636719 216.347656 218.363281 216.675781 220.171875 216.675781 C 220.746094 216.101562 221.15625 215.28125 221.15625 214.378906 C 221.15625 212.65625 219.757812 211.265625 218.03125 211.265625 C 216.304688 211.265625 214.910156 212.65625 214.910156 214.378906 C 214.910156 214.871094 214.992188 215.363281 215.15625 215.773438 Z M 215.15625 215.773438 " fill-opacity="1" fill-rule="nonzero"/><path fill="#102770" d="M 222.144531 217.824219 C 221.816406 217.824219 221.566406 217.660156 221.320312 217.414062 C 220.664062 216.59375 220.253906 215.527344 220.253906 214.460938 C 220.253906 211.835938 222.390625 209.707031 225.019531 209.707031 C 226.746094 209.707031 228.390625 210.691406 229.214844 212.164062 C 229.214844 212.164062 229.214844 212.246094 229.214844 212.246094 C 229.542969 212.902344 229.707031 213.640625 229.707031 214.378906 C 229.707031 214.789062 229.625 215.28125 229.542969 215.691406 C 229.460938 216.019531 229.214844 216.265625 228.882812 216.347656 C 227.40625 216.921875 224.9375 217.578125 222.144531 217.824219 Z M 225.019531 211.671875 C 223.539062 211.671875 222.308594 212.902344 222.308594 214.378906 C 222.308594 214.871094 222.390625 215.28125 222.636719 215.691406 C 224.773438 215.527344 226.582031 215.035156 227.816406 214.625 C 227.816406 214.542969 227.816406 214.460938 227.816406 214.378906 C 227.816406 213.96875 227.734375 213.558594 227.570312 213.148438 C 227.570312 213.066406 227.488281 213.066406 227.488281 212.984375 C 226.992188 212.246094 226.007812 211.671875 225.019531 211.671875 Z M 228.636719 215.445312 Z M 228.636719 215.445312 " fill-opacity="1" fill-rule="nonzero"/><path fill="#102770" d="M 230.777344 215.363281 C 230.695312 215.363281 230.695312 215.363281 230.609375 215.363281 C 229.296875 215.199219 228.144531 214.378906 227.488281 213.230469 C 227.488281 213.148438 227.40625 213.148438 227.40625 213.066406 C 227.074219 212.492188 226.992188 211.835938 226.992188 211.183594 C 226.992188 208.804688 228.882812 206.917969 231.269531 206.917969 C 232.996094 206.917969 234.640625 207.984375 235.296875 209.625 C 235.378906 209.707031 235.378906 209.871094 235.378906 210.035156 C 235.378906 210.199219 235.378906 210.363281 235.296875 210.445312 C 234.226562 212.820312 232.585938 214.378906 231.515625 215.28125 C 231.269531 215.28125 231.023438 215.363281 230.777344 215.363281 Z M 229.296875 212.246094 C 229.542969 212.738281 230.035156 213.066406 230.527344 213.3125 C 231.269531 212.65625 232.335938 211.507812 233.160156 209.953125 C 232.75 209.296875 232.007812 208.886719 231.269531 208.886719 C 230.035156 208.886719 228.96875 209.871094 228.96875 211.183594 C 228.96875 211.507812 229.050781 211.835938 229.214844 212.164062 C 229.214844 212.164062 229.296875 212.164062 229.296875 212.246094 Z M 229.296875 212.246094 " fill-opacity="1" fill-rule="nonzero"/><path fill="#102770" d="M 220.253906 217.824219 C 218.195312 217.742188 216.386719 217.414062 214.746094 216.757812 C 214.496094 216.675781 214.332031 216.511719 214.167969 216.265625 C 213.921875 215.691406 213.757812 215.035156 213.757812 214.378906 C 213.757812 212 215.648438 210.117188 218.03125 210.117188 C 220.417969 210.117188 222.308594 212 222.308594 214.378906 C 222.308594 215.527344 221.816406 216.675781 220.910156 217.496094 C 220.746094 217.742188 220.5 217.824219 220.253906 217.824219 Z M 215.8125 215.035156 C 217.046875 215.445312 218.363281 215.691406 219.757812 215.773438 C 220.089844 215.363281 220.253906 214.871094 220.253906 214.378906 C 220.253906 213.148438 219.265625 212.082031 217.949219 212.082031 C 216.636719 212.082031 215.648438 213.066406 215.648438 214.378906 C 215.730469 214.625 215.8125 214.871094 215.8125 215.035156 Z M 215.8125 215.035156 " fill-opacity="1" fill-rule="nonzero"/><path fill="#b5ea24" d="M 185.886719 213.148438 C 185.722656 217.003906 180.957031 218.152344 178.980469 218.152344 L 165.253906 218.152344 C 165.171875 218.152344 165.171875 218.152344 165.089844 218.152344 C 164.511719 218.152344 163.9375 217.988281 163.363281 217.742188 C 163.117188 217.578125 162.785156 217.496094 162.539062 217.25 C 161.964844 216.839844 161.554688 216.347656 161.140625 215.691406 C 160.648438 214.707031 160.15625 213.722656 159.828125 212.820312 C 156.457031 204.050781 158.757812 195.441406 161.308594 189.785156 C 163.199219 185.683594 165.171875 183.058594 165.171875 183.058594 L 165.417969 183.222656 L 184.078125 194.703125 C 184.078125 194.703125 179.886719 198.0625 183.257812 205.441406 C 185.230469 209.296875 185.96875 210.527344 185.886719 213.148438 Z M 185.886719 213.148438 " fill-opacity="1" fill-rule="nonzero"/><path fill="#ffffff" d="M 162.292969 210.117188 C 162.867188 212.902344 163.855469 215.609375 165.089844 218.152344 C 164.511719 218.152344 163.9375 217.988281 163.363281 217.742188 C 163.117188 217.578125 162.785156 217.496094 162.539062 217.25 C 161.964844 216.839844 161.554688 216.347656 161.140625 215.691406 C 160.648438 214.707031 160.15625 213.722656 159.828125 212.820312 C 156.457031 204.050781 158.757812 195.441406 161.308594 189.785156 C 163.199219 185.683594 165.171875 183.058594 165.171875 183.058594 L 165.417969 183.222656 C 163.9375 186.996094 162.867188 190.929688 162.210938 194.867188 C 161.800781 197.570312 161.554688 200.359375 161.554688 203.066406 C 161.636719 205.441406 161.800781 207.820312 162.292969 210.117188 Z M 162.292969 210.117188 " fill-opacity="0.6" fill-rule="nonzero"/><path fill="#102770" d="M 185.886719 213.148438 C 185.722656 217.003906 180.957031 218.152344 178.980469 218.152344 L 166.652344 218.152344 C 184.820312 210.363281 166.898438 194.292969 161.390625 189.785156 C 163.28125 185.683594 165.253906 183.058594 165.253906 183.058594 L 184.160156 194.621094 C 184.160156 194.621094 179.96875 197.980469 183.339844 205.359375 C 185.230469 209.296875 185.96875 210.527344 185.886719 213.148438 Z M 185.886719 213.148438 " fill-opacity="0.2" fill-rule="nonzero"/><path fill="#102770" d="M 178.980469 219.296875 L 165.253906 219.296875 C 164.429688 219.296875 163.691406 219.132812 162.949219 218.804688 C 162.621094 218.640625 162.292969 218.480469 161.964844 218.234375 C 161.308594 217.742188 160.730469 217.085938 160.320312 216.347656 C 159.828125 215.363281 159.332031 214.378906 158.921875 213.3125 C 156.457031 206.835938 156.621094 199.457031 159.414062 191.996094 C 161.554688 186.339844 164.347656 182.652344 164.511719 182.488281 C 164.84375 182.078125 165.5 181.914062 165.910156 182.242188 L 184.820312 193.800781 C 185.148438 193.964844 185.3125 194.292969 185.3125 194.621094 C 185.3125 194.949219 185.148438 195.277344 184.902344 195.523438 C 184.738281 195.605469 181.449219 198.472656 184.410156 204.949219 C 184.65625 205.441406 184.820312 205.933594 185.066406 206.34375 C 186.464844 209.214844 187.121094 210.691406 186.957031 213.230469 C 186.792969 217.742188 181.53125 219.296875 178.980469 219.296875 Z M 165.582031 184.535156 C 163.445312 187.734375 156.046875 200.03125 160.894531 212.492188 C 161.226562 213.476562 161.71875 214.378906 162.210938 215.28125 C 162.457031 215.773438 162.785156 216.183594 163.28125 216.429688 C 163.445312 216.59375 163.691406 216.675781 163.9375 216.757812 C 164.347656 216.921875 164.84375 217.085938 165.335938 217.085938 L 179.066406 217.085938 C 180.542969 217.085938 184.820312 216.101562 184.902344 213.066406 C 184.984375 211.101562 184.492188 210.035156 183.175781 207.246094 C 183.011719 206.835938 182.765625 206.34375 182.515625 205.851562 C 179.886719 200.113281 181.449219 196.589844 182.601562 194.867188 Z M 165.582031 184.535156 " fill-opacity="1" fill-rule="nonzero"/><path fill="#ffd54f" d="M 186.628906 198.472656 C 163.9375 196.753906 154.8125 179.042969 156.703125 165.1875 C 156.703125 164.941406 156.785156 164.777344 156.785156 164.53125 C 158.511719 152.644531 162.621094 143.132812 168.789062 136.574219 C 176.925781 129.359375 196.65625 129.6875 207.507812 144.691406 C 209.070312 146.824219 210.46875 149.28125 211.539062 152.070312 C 220.828125 174.863281 210.632812 195.03125 186.628906 198.472656 Z M 186.628906 198.472656 " fill-opacity="1" fill-rule="nonzero"/><path fill="#ffffff" d="M 188.929688 197.734375 C 166.238281 196.015625 157.113281 178.304688 159.003906 164.449219 C 159.003906 164.203125 159.085938 164.039062 159.085938 163.792969 C 160.8125 151.824219 164.925781 142.394531 171.007812 135.753906 C 172.40625 134.523438 174.214844 133.457031 176.269531 132.722656 C 173.226562 133.457031 170.679688 134.769531 168.707031 136.492188 C 162.539062 143.132812 158.429688 152.5625 156.703125 164.449219 C 156.703125 164.695312 156.621094 164.859375 156.621094 165.105469 C 154.730469 178.960938 163.855469 196.753906 186.546875 198.390625 C 189.339844 197.980469 191.972656 197.324219 194.4375 196.507812 C 192.710938 197.082031 190.902344 197.40625 188.929688 197.734375 Z M 188.929688 197.734375 " fill-opacity="0.6" fill-rule="nonzero"/><path fill="#102770" d="M 211.703125 151.90625 C 210.550781 149.117188 209.234375 146.660156 207.675781 144.527344 C 207.34375 144.117188 207.097656 143.707031 206.769531 143.378906 C 214.746094 165.597656 212.9375 192.652344 184.242188 194.703125 C 173.96875 195.441406 161.554688 186.996094 158.347656 178.632812 C 161.964844 188.554688 171.171875 197.324219 186.792969 198.472656 C 210.796875 195.03125 220.992188 174.863281 211.703125 151.90625 Z M 211.703125 151.90625 " fill-opacity="0.2" fill-rule="nonzero"/><path fill="#102770" d="M 207.507812 144.527344 C 202.25 152.480469 191.148438 160.433594 177.421875 163.710938 C 170.1875 165.433594 163.035156 165.925781 156.785156 165.269531 C 158.511719 153.382812 162.621094 143.050781 168.789062 136.410156 C 176.925781 129.277344 196.65625 129.523438 207.507812 144.527344 Z M 207.507812 144.527344 " fill-opacity="0.2" fill-rule="nonzero"/><path fill="#102770" d="M 186.628906 199.539062 C 186.546875 199.539062 186.546875 199.539062 186.628906 199.539062 C 173.472656 198.554688 166.074219 192.570312 162.128906 187.652344 C 157.03125 181.339844 154.566406 172.8125 155.632812 164.941406 C 157.359375 152.5625 161.472656 142.722656 167.964844 135.671875 C 167.964844 135.589844 168.046875 135.589844 168.046875 135.589844 C 173.0625 131.246094 181.613281 129.6875 190 131.574219 C 196 132.96875 206.851562 137.394531 212.523438 151.496094 C 217.375 163.382812 217.210938 174.945312 212.03125 183.878906 C 207.179688 192.242188 198.21875 197.816406 186.792969 199.457031 C 186.710938 199.539062 186.628906 199.539062 186.628906 199.539062 Z M 169.445312 137.230469 C 163.28125 143.871094 159.332031 153.300781 157.691406 165.269531 C 156.703125 172.566406 158.921875 180.4375 163.691406 186.339844 C 167.390625 190.847656 174.296875 196.425781 186.546875 197.40625 C 197.234375 195.851562 205.617188 190.683594 210.140625 182.898438 C 214.992188 174.535156 215.15625 163.628906 210.550781 152.398438 C 205.207031 139.199219 195.097656 135.097656 189.503906 133.785156 C 181.777344 131.902344 173.96875 133.292969 169.445312 137.230469 Z M 169.445312 137.230469 " fill-opacity="1" fill-rule="nonzero"/><path fill="#102770" d="M 178.324219 162.070312 C 178.816406 165.023438 179.3125 167.894531 179.96875 170.84375 C 180.542969 173.714844 181.285156 176.582031 182.105469 179.453125 C 182.929688 182.242188 183.914062 185.027344 185.230469 187.652344 C 186.464844 190.273438 188.027344 192.816406 190 194.949219 C 190.082031 195.03125 190.082031 195.277344 190 195.359375 C 189.917969 195.441406 189.753906 195.441406 189.585938 195.359375 C 187.203125 193.390625 185.394531 190.929688 183.914062 188.226562 C 183.503906 187.570312 183.175781 186.914062 182.847656 186.175781 C 182.515625 185.519531 182.1875 184.78125 181.941406 184.125 C 181.613281 183.386719 181.367188 182.734375 181.121094 181.996094 C 180.875 181.257812 180.625 180.601562 180.378906 179.863281 C 179.476562 176.992188 178.816406 174.042969 178.40625 171.089844 C 178.160156 169.613281 177.996094 168.140625 177.914062 166.582031 C 177.832031 165.105469 177.75 163.546875 177.75 162.070312 C 177.75 161.90625 177.914062 161.824219 178.078125 161.824219 C 178.242188 161.824219 178.324219 161.90625 178.324219 162.070312 Z M 178.324219 162.070312 " fill-opacity="1" fill-rule="nonzero"/><path fill="#102770" d="M 163.773438 173.386719 C 164.59375 173.550781 165.582031 173.714844 166.402344 173.796875 C 167.308594 173.878906 168.210938 173.960938 169.117188 173.960938 C 169.527344 173.960938 170.019531 173.960938 170.433594 173.960938 C 170.84375 173.960938 171.335938 173.960938 171.746094 173.878906 C 172.652344 173.878906 173.554688 173.796875 174.460938 173.714844 C 174.871094 173.632812 175.363281 173.632812 175.777344 173.550781 C 176.1875 173.46875 176.679688 173.46875 177.089844 173.386719 C 177.503906 173.304688 177.996094 173.222656 178.40625 173.140625 C 178.816406 173.058594 179.3125 172.976562 179.722656 172.894531 L 181.039062 172.566406 L 182.351562 172.238281 C 182.765625 172.15625 183.257812 171.992188 183.667969 171.910156 C 184.078125 171.828125 184.574219 171.664062 184.984375 171.5 C 186.710938 171.007812 188.355469 170.269531 190.082031 169.613281 C 190.902344 169.285156 191.726562 168.875 192.546875 168.550781 L 193.78125 167.976562 L 195.011719 167.402344 C 198.21875 165.761719 201.34375 163.875 204.386719 161.90625 C 204.550781 161.824219 204.714844 161.824219 204.796875 161.988281 C 204.878906 162.152344 204.878906 162.234375 204.714844 162.398438 C 201.917969 164.777344 198.878906 166.910156 195.671875 168.714844 C 192.464844 170.515625 189.09375 172.074219 185.558594 173.222656 C 182.023438 174.371094 178.324219 175.109375 174.625 175.355469 C 172.734375 175.4375 170.925781 175.4375 169.035156 175.273438 C 168.128906 175.191406 167.226562 175.027344 166.238281 174.863281 C 165.335938 174.699219 164.429688 174.453125 163.527344 174.125 C 163.363281 174.042969 163.28125 173.878906 163.363281 173.714844 C 163.527344 173.46875 163.609375 173.386719 163.773438 173.386719 Z M 163.773438 173.386719 " fill-opacity="1" fill-rule="nonzero"/><path fill="#102770" d="M 168.789062 187.160156 C 169.691406 187.324219 170.597656 187.40625 171.5 187.40625 C 172.40625 187.488281 173.308594 187.488281 174.214844 187.488281 C 176.023438 187.488281 177.832031 187.324219 179.640625 187.078125 C 183.257812 186.585938 186.792969 185.683594 190.164062 184.453125 C 190.574219 184.289062 190.984375 184.125 191.394531 183.960938 L 192.054688 183.714844 L 192.710938 183.46875 C 193.121094 183.304688 193.535156 183.140625 193.945312 182.898438 L 195.179688 182.324219 C 196.820312 181.503906 198.382812 180.601562 199.945312 179.617188 C 203.070312 177.648438 205.949219 175.4375 208.742188 172.976562 C 208.824219 172.894531 209.070312 172.894531 209.152344 172.976562 C 209.234375 173.058594 209.234375 173.222656 209.152344 173.386719 C 206.6875 176.171875 203.808594 178.632812 200.769531 180.765625 C 200.027344 181.339844 199.207031 181.832031 198.382812 182.324219 C 197.972656 182.570312 197.5625 182.816406 197.152344 183.058594 C 196.738281 183.304688 196.328125 183.550781 195.917969 183.714844 C 194.273438 184.617188 192.546875 185.355469 190.820312 186.09375 C 187.285156 187.488281 183.585938 188.308594 179.804688 188.71875 C 177.914062 188.882812 176.023438 188.882812 174.132812 188.800781 C 172.242188 188.636719 170.351562 188.390625 168.542969 187.816406 C 168.378906 187.734375 168.292969 187.570312 168.378906 187.488281 C 168.542969 187.160156 168.625 187.078125 168.789062 187.160156 Z M 168.789062 187.160156 " fill-opacity="1" fill-rule="nonzero"/><path fill="#b5ea24" d="M 208.742188 123.703125 C 206.851562 148.214844 188.929688 153.628906 180.296875 155.59375 C 154.976562 161.417969 149.222656 149.035156 147.90625 144.199219 C 147.578125 143.050781 147.578125 142.3125 147.578125 142.3125 C 147.578125 142.3125 128.75 132.066406 134.421875 105.171875 C 140.179688 78.28125 168.292969 75.085938 182.601562 79.59375 C 195.835938 83.773438 205.453125 97.386719 208.085938 112.222656 C 208.824219 116.078125 208.988281 119.929688 208.742188 123.703125 Z M 208.742188 123.703125 " fill-opacity="1" fill-rule="nonzero"/><path fill="#102770" d="M 208.742188 123.703125 C 206.851562 148.214844 188.929688 153.628906 180.296875 155.59375 C 154.976562 161.417969 149.222656 149.035156 147.90625 144.199219 C 156.703125 147.640625 167.226562 148.542969 180.625 146.25 C 200.851562 142.804688 206.441406 124.605469 208.085938 112.222656 C 208.824219 116.078125 208.988281 119.929688 208.742188 123.703125 Z M 208.742188 123.703125 " fill-opacity="0.2" fill-rule="nonzero"/><path fill="#ffffff" d="M 208.742188 122.800781 C 207.59375 105.992188 197.316406 89.679688 182.601562 85.085938 C 180.378906 84.347656 177.75 83.855469 175.035156 83.609375 C 175.035156 84.921875 171.746094 86.234375 167.71875 86.5625 C 163.527344 86.890625 160.074219 85.988281 159.992188 84.675781 C 148.644531 87.464844 137.792969 95.089844 134.507812 110.667969 C 134.011719 113.042969 133.683594 115.257812 133.519531 117.390625 C 133.191406 113.617188 133.4375 109.355469 134.507812 104.601562 C 140.261719 77.707031 168.378906 74.511719 182.683594 79.019531 C 199.125 84.183594 210.058594 104.027344 208.742188 122.800781 Z M 208.742188 122.800781 " fill-opacity="0.6" fill-rule="nonzero"/><path fill="#102770" d="M 168.210938 158.21875 C 162.128906 158.21875 157.113281 156.824219 153.332031 154.039062 C 148.070312 150.101562 146.835938 144.773438 146.589844 142.96875 C 145.277344 142.148438 141.410156 139.445312 137.957031 134.441406 C 134.175781 128.867188 130.3125 119.191406 133.355469 104.925781 C 135.492188 94.925781 141 87.054688 149.304688 82.21875 C 160.320312 75.824219 174.050781 75.824219 182.847656 78.527344 C 190.984375 81.070312 198.21875 87.300781 203.234375 95.992188 C 208.085938 104.4375 210.386719 114.273438 209.648438 123.785156 C 208.824219 134.6875 204.796875 143.132812 197.5625 148.953125 C 191.644531 153.710938 184.902344 155.59375 180.378906 156.660156 C 176.023438 157.726562 171.914062 158.21875 168.210938 158.21875 Z M 170.679688 78.9375 C 164.101562 78.9375 156.785156 80.414062 150.453125 84.101562 C 142.5625 88.695312 137.546875 95.828125 135.492188 105.417969 C 133.191406 116.160156 134.671875 125.507812 139.683594 133.132812 C 143.46875 138.789062 148.070312 141.328125 148.070312 141.328125 C 148.398438 141.492188 148.644531 141.820312 148.644531 142.230469 C 148.644531 142.3125 149.140625 148.296875 154.648438 152.316406 C 160.238281 156.414062 168.707031 157.152344 180.050781 154.609375 C 186.382812 153.136719 205.699219 148.707031 207.59375 123.703125 C 209.070312 104.519531 197.890625 85.660156 182.269531 80.660156 C 178.980469 79.59375 174.953125 78.9375 170.679688 78.9375 Z M 180.296875 155.59375 Z M 180.296875 155.59375 " fill-opacity="1" fill-rule="nonzero"/><path fill="#ffffff" d="M 175.53125 216.675781 C 175.53125 217.25 175.363281 217.742188 175.035156 218.152344 L 168.953125 218.152344 C 168.625 217.742188 168.460938 217.25 168.460938 216.675781 C 168.460938 215.117188 170.019531 213.804688 171.996094 213.804688 C 173.96875 213.804688 175.53125 215.117188 175.53125 216.675781 Z M 175.53125 216.675781 " fill-opacity="1" fill-rule="nonzero"/><path fill="#102770" d="M 175.117188 218.316406 L 168.953125 218.316406 L 168.871094 218.234375 C 168.542969 217.742188 168.378906 217.25 168.378906 216.675781 C 168.378906 215.035156 170.019531 213.640625 171.996094 213.640625 C 174.050781 213.640625 175.613281 215.035156 175.613281 216.675781 C 175.695312 217.25 175.53125 217.824219 175.117188 218.316406 Z M 169.117188 218.070312 L 175.035156 218.070312 C 175.28125 217.660156 175.445312 217.25 175.445312 216.757812 C 175.445312 215.28125 173.96875 214.050781 172.078125 214.050781 C 170.1875 214.050781 168.707031 215.28125 168.707031 216.757812 C 168.707031 217.167969 168.789062 217.660156 169.117188 218.070312 Z M 169.117188 218.070312 " fill-opacity="1" fill-rule="nonzero"/><path fill="#ffffff" d="M 163.117188 215.527344 C 163.117188 216.265625 162.949219 216.839844 162.621094 217.332031 C 162.046875 216.921875 161.636719 216.429688 161.226562 215.773438 C 160.730469 214.789062 160.238281 213.804688 159.910156 212.902344 C 160.238281 212.738281 160.566406 212.65625 160.894531 212.65625 C 162.046875 212.574219 163.117188 213.886719 163.117188 215.527344 Z M 163.117188 215.527344 " fill-opacity="1" fill-rule="nonzero"/><path fill="#102770" d="M 162.621094 217.496094 L 162.457031 217.414062 C 161.882812 217.003906 161.390625 216.429688 161.058594 215.855469 C 160.566406 214.953125 160.074219 213.96875 159.746094 212.902344 L 159.664062 212.820312 L 159.746094 212.738281 C 160.074219 212.574219 160.402344 212.410156 160.8125 212.410156 C 162.128906 212.410156 163.199219 213.804688 163.199219 215.445312 C 163.199219 216.101562 163.035156 216.839844 162.621094 217.332031 Z M 160.074219 212.984375 C 160.484375 213.96875 160.894531 214.871094 161.390625 215.773438 C 161.71875 216.347656 162.046875 216.757812 162.539062 217.167969 C 162.785156 216.675781 162.949219 216.101562 162.949219 215.527344 C 162.949219 214.050781 161.964844 212.820312 160.8125 212.820312 C 160.566406 212.738281 160.320312 212.820312 160.074219 212.984375 Z M 160.074219 212.984375 " fill-opacity="1" fill-rule="nonzero"/><path fill="#ffffff" d="M 168.292969 216.265625 C 168.292969 217.003906 168.128906 217.660156 167.800781 218.234375 L 165.253906 218.234375 C 164.59375 218.234375 163.9375 218.070312 163.363281 217.824219 C 163.199219 217.332031 163.035156 216.839844 163.035156 216.265625 C 163.035156 214.378906 164.183594 212.902344 165.664062 212.902344 C 167.144531 212.902344 168.292969 214.378906 168.292969 216.265625 Z M 168.292969 216.265625 " fill-opacity="1" fill-rule="nonzero"/><path fill="#102770" d="M 167.964844 218.316406 L 165.253906 218.316406 C 164.59375 218.316406 163.9375 218.152344 163.363281 217.90625 L 163.28125 217.90625 L 163.28125 217.824219 C 163.117188 217.332031 162.949219 216.757812 162.949219 216.265625 C 162.949219 214.378906 164.183594 212.738281 165.746094 212.738281 C 167.308594 212.738281 168.542969 214.296875 168.542969 216.265625 C 168.460938 217.003906 168.292969 217.660156 167.964844 218.316406 Z M 163.527344 217.660156 C 164.101562 217.90625 164.675781 217.988281 165.253906 217.988281 L 167.800781 217.988281 C 168.046875 217.496094 168.210938 216.839844 168.210938 216.183594 C 168.210938 214.378906 167.144531 212.984375 165.746094 212.984375 C 164.347656 212.984375 163.28125 214.460938 163.28125 216.183594 C 163.28125 216.757812 163.363281 217.25 163.527344 217.660156 Z M 163.527344 217.660156 " fill-opacity="1" fill-rule="nonzero"/><path fill="#102770" d="M 175.035156 219.050781 L 168.953125 219.050781 C 168.707031 219.050781 168.378906 218.886719 168.210938 218.722656 C 167.800781 218.152344 167.554688 217.414062 167.554688 216.757812 C 167.554688 214.707031 169.527344 212.984375 171.914062 212.984375 C 174.296875 212.984375 176.269531 214.707031 176.269531 216.757812 C 176.269531 217.496094 176.023438 218.152344 175.613281 218.722656 C 175.613281 218.886719 175.363281 219.050781 175.035156 219.050781 Z M 169.527344 217.332031 L 174.542969 217.332031 C 174.625 217.167969 174.707031 216.921875 174.707031 216.757812 C 174.707031 215.609375 173.554688 214.707031 172.078125 214.707031 C 170.597656 214.707031 169.445312 215.609375 169.445312 216.757812 C 169.363281 216.921875 169.445312 217.085938 169.527344 217.332031 Z M 169.527344 217.332031 " fill-opacity="1" fill-rule="nonzero"/><path fill="#102770" d="M 162.539062 218.234375 C 162.375 218.234375 162.210938 218.152344 162.046875 218.070312 C 161.390625 217.578125 160.8125 216.921875 160.402344 216.265625 C 159.910156 215.28125 159.414062 214.296875 159.003906 213.230469 C 158.839844 212.820312 159.003906 212.410156 159.332031 212.164062 C 159.746094 211.917969 160.238281 211.753906 160.730469 211.753906 C 162.457031 211.753906 163.855469 213.476562 163.855469 215.527344 C 163.855469 216.347656 163.609375 217.167969 163.199219 217.824219 C 163.035156 217.988281 162.867188 218.152344 162.621094 218.234375 C 162.703125 218.152344 162.621094 218.234375 162.539062 218.234375 Z M 161.058594 213.476562 C 161.308594 214.132812 161.636719 214.707031 161.964844 215.363281 C 162.046875 215.527344 162.128906 215.609375 162.210938 215.773438 C 162.210938 215.691406 162.210938 215.609375 162.210938 215.527344 C 162.210938 214.542969 161.71875 213.640625 161.058594 213.476562 Z M 161.058594 213.476562 " fill-opacity="1" fill-rule="nonzero"/><path fill="#102770" d="M 167.882812 219.050781 L 165.253906 219.050781 C 164.511719 219.050781 163.773438 218.886719 163.035156 218.558594 C 162.785156 218.480469 162.621094 218.316406 162.539062 218.070312 C 162.292969 217.496094 162.210938 216.839844 162.210938 216.183594 C 162.210938 213.886719 163.773438 212 165.664062 212 C 167.554688 212 169.117188 213.886719 169.117188 216.183594 C 169.117188 217.003906 168.953125 217.824219 168.542969 218.558594 C 168.460938 218.886719 168.128906 219.050781 167.882812 219.050781 Z M 164.101562 217.167969 C 164.511719 217.332031 164.84375 217.332031 165.253906 217.332031 L 167.308594 217.332031 C 167.390625 217.003906 167.472656 216.675781 167.472656 216.265625 C 167.472656 214.953125 166.652344 213.804688 165.746094 213.804688 C 164.757812 213.804688 164.019531 214.953125 164.019531 216.265625 C 163.9375 216.511719 164.019531 216.839844 164.101562 217.167969 Z M 164.101562 217.167969 " fill-opacity="1" fill-rule="nonzero"/><path fill="#b5ea24" d="M 180.707031 146.25 C 180.707031 146.25 185.640625 146.25 186.300781 150.019531 C 186.957031 153.710938 168.789062 163.300781 156.867188 162.5625 C 156.867188 162.5625 155.964844 170.023438 157.195312 174.207031 C 157.195312 174.207031 150.207031 173.058594 144.453125 168.222656 C 143.796875 167.648438 143.136719 167.074219 142.5625 166.417969 C 140.917969 164.613281 139.4375 162.480469 138.371094 159.859375 C 133.601562 147.804688 147.578125 136.246094 160.566406 133.949219 C 168.789062 132.476562 177.75 132.640625 183.832031 133.949219 C 183.914062 133.949219 184.078125 134.03125 184.160156 134.03125 C 188.355469 135.015625 191.148438 136.574219 191.148438 138.625 C 191.230469 143.542969 180.707031 146.25 180.707031 146.25 Z M 180.707031 146.25 " fill-opacity="1" fill-rule="nonzero"/><path fill="#102770" d="M 180.707031 146.25 C 180.707031 146.25 185.640625 146.25 186.300781 150.019531 C 186.957031 153.710938 168.789062 163.300781 156.867188 162.5625 C 156.867188 162.5625 155.964844 170.023438 157.195312 174.207031 C 157.195312 174.207031 150.207031 173.058594 144.453125 168.222656 C 145.027344 167.976562 145.605469 167.730469 146.097656 167.402344 C 149.632812 165.433594 152.429688 161.5 151.769531 157.398438 C 156.621094 157.5625 161.390625 157.070312 166.074219 155.921875 C 167.964844 155.511719 169.9375 154.9375 171.582031 153.792969 C 173.226562 152.726562 174.542969 151.003906 174.871094 149.117188 C 175.117188 147.152344 174.132812 145.019531 172.324219 144.28125 C 174.132812 143.707031 176.023438 143.378906 177.832031 142.886719 C 179.640625 142.394531 181.449219 141.65625 182.847656 140.347656 C 184.242188 139.035156 185.066406 137.066406 184.574219 135.261719 C 184.410156 134.6875 184.160156 134.277344 183.832031 133.867188 C 188.191406 134.851562 191.148438 136.410156 191.148438 138.460938 C 191.230469 143.542969 180.707031 146.25 180.707031 146.25 Z M 180.707031 146.25 " fill-opacity="0.2" fill-rule="nonzero"/><path fill="#ffffff" d="M 142.5625 166.417969 C 140.917969 164.613281 139.4375 162.480469 138.371094 159.859375 C 133.601562 147.804688 147.578125 136.246094 160.566406 133.949219 C 168.789062 132.476562 177.75 132.640625 183.832031 133.949219 C 183.914062 133.949219 184.078125 134.03125 184.160156 134.03125 C 166.320312 132.148438 131.21875 140.101562 142.5625 166.417969 Z M 142.5625 166.417969 " fill-opacity="0.6" fill-rule="nonzero"/><path fill="#102770" d="M 157.195312 175.273438 C 157.113281 175.273438 157.113281 175.273438 157.03125 175.273438 C 156.457031 175.191406 142.316406 172.8125 137.382812 160.269531 C 135.738281 156.003906 136.066406 151.496094 138.453125 147.234375 C 142.316406 140.265625 151.113281 134.523438 160.320312 132.886719 C 172.324219 130.753906 186.132812 131.984375 190.574219 135.589844 C 191.644531 136.492188 192.21875 137.476562 192.21875 138.542969 C 192.300781 142.230469 187.859375 144.691406 184.492188 146.003906 C 185.804688 146.742188 186.957031 147.886719 187.285156 149.691406 C 187.449219 150.59375 187.039062 151.578125 186.050781 152.726562 C 182.023438 157.234375 168.292969 163.546875 158.183594 163.546875 C 158.101562 163.546875 157.9375 163.546875 157.855469 163.546875 C 157.691406 165.679688 157.359375 170.679688 158.265625 173.796875 C 158.347656 174.125 158.265625 174.535156 158.019531 174.863281 C 157.855469 175.191406 157.523438 175.273438 157.195312 175.273438 Z M 172.570312 134.03125 C 168.789062 134.03125 164.757812 134.359375 160.730469 135.097656 C 152.261719 136.574219 143.878906 141.984375 140.34375 148.296875 C 138.207031 152.070312 137.875 155.839844 139.355469 159.53125 C 142.890625 168.46875 152.015625 171.828125 155.714844 172.8125 C 154.976562 168.46875 155.714844 162.726562 155.714844 162.480469 C 155.796875 161.90625 156.292969 161.5 156.867188 161.582031 C 166.320312 162.152344 180.542969 155.839844 184.410156 151.496094 C 185.148438 150.59375 185.148438 150.265625 185.148438 150.265625 C 184.738281 147.398438 180.875 147.316406 180.707031 147.316406 C 180.132812 147.316406 179.722656 146.90625 179.640625 146.332031 C 179.558594 145.757812 179.886719 145.265625 180.460938 145.183594 C 183.011719 144.527344 190.164062 141.902344 190.082031 138.625 C 190.082031 138.214844 189.753906 137.722656 189.257812 137.230469 C 186.875 135.34375 180.378906 134.03125 172.570312 134.03125 Z M 172.570312 134.03125 " fill-opacity="1" fill-rule="nonzero"/><path fill="#102770" d="M 158.839844 131.574219 C 158.429688 132.804688 157.691406 133.949219 156.703125 134.851562 C 155.714844 135.753906 154.402344 136.410156 153.003906 136.65625 C 152.347656 136.738281 151.605469 136.738281 150.867188 136.65625 C 150.207031 136.574219 149.550781 136.328125 148.894531 136 C 147.660156 135.34375 146.753906 134.441406 146.097656 133.375 C 145.933594 133.050781 146.015625 132.640625 146.34375 132.394531 C 146.589844 132.230469 146.835938 132.230469 147.085938 132.394531 C 147.578125 132.640625 147.988281 132.96875 148.480469 133.214844 C 148.976562 133.457031 149.386719 133.621094 149.878906 133.785156 C 150.785156 134.113281 151.6875 134.195312 152.59375 134.03125 C 153.496094 133.867188 154.320312 133.539062 155.140625 132.96875 C 155.964844 132.394531 156.621094 131.65625 157.195312 130.835938 C 157.441406 130.425781 158.019531 130.34375 158.347656 130.589844 C 158.839844 130.835938 159.003906 131.246094 158.839844 131.574219 Z M 158.839844 131.574219 " fill-opacity="1" fill-rule="nonzero"/><path fill="#102770" d="M 178.40625 126.488281 C 179.394531 126.898438 180.378906 127.144531 181.367188 127.144531 C 182.351562 127.226562 183.257812 127.0625 184.078125 126.652344 C 184.902344 126.242188 185.640625 125.671875 186.21875 124.933594 C 186.546875 124.523438 186.792969 124.113281 187.039062 123.703125 C 187.285156 123.210938 187.53125 122.800781 187.777344 122.226562 C 187.945312 121.898438 188.355469 121.734375 188.683594 121.898438 C 188.929688 121.980469 189.09375 122.226562 189.09375 122.472656 C 189.09375 123.703125 188.847656 125.015625 188.191406 126.164062 C 187.859375 126.734375 187.449219 127.308594 186.875 127.800781 C 186.382812 128.292969 185.722656 128.703125 185.148438 128.949219 C 183.832031 129.523438 182.433594 129.6875 181.121094 129.441406 C 179.804688 129.195312 178.570312 128.703125 177.585938 127.800781 C 177.257812 127.472656 177.171875 126.980469 177.503906 126.570312 C 177.667969 126.40625 178.078125 126.324219 178.40625 126.488281 Z M 178.40625 126.488281 " fill-opacity="1" fill-rule="nonzero"/><path fill="#102770" d="M 173.308594 147.886719 C 172.324219 148.132812 171.253906 148.378906 170.351562 148.707031 C 169.445312 149.035156 168.542969 149.363281 167.800781 149.855469 C 167.390625 150.101562 167.0625 150.347656 166.734375 150.675781 C 166.402344 151.003906 166.15625 151.332031 165.828125 151.742188 C 165.335938 152.480469 164.925781 153.382812 164.511719 154.449219 C 164.429688 154.609375 164.183594 154.691406 164.019531 154.691406 C 163.855469 154.613281 163.773438 154.53125 163.773438 154.367188 C 163.609375 153.21875 163.773438 152.070312 164.265625 150.921875 C 164.511719 150.347656 164.84375 149.855469 165.171875 149.363281 C 165.582031 148.871094 165.992188 148.460938 166.484375 148.132812 C 167.472656 147.398438 168.707031 146.988281 169.855469 146.824219 C 170.433594 146.742188 171.007812 146.742188 171.582031 146.824219 C 172.160156 146.90625 172.734375 146.988281 173.308594 147.234375 C 173.472656 147.316406 173.554688 147.558594 173.472656 147.722656 C 173.554688 147.804688 173.472656 147.886719 173.308594 147.886719 Z M 173.308594 147.886719 " fill-opacity="1" fill-rule="nonzero"/><path fill="#102770" d="M 232.585938 129.6875 C 234.558594 129.113281 236.53125 128.785156 238.585938 128.621094 C 239.078125 128.621094 239.65625 128.621094 240.148438 128.621094 C 240.640625 128.621094 241.214844 128.703125 241.792969 128.785156 C 241.957031 128.785156 242.121094 128.867188 242.203125 128.867188 C 242.367188 128.949219 242.53125 128.949219 242.695312 129.03125 C 243.023438 129.195312 243.355469 129.359375 243.683594 129.605469 C 243.765625 129.6875 243.847656 129.769531 243.929688 129.851562 C 244.011719 129.933594 244.011719 129.933594 244.011719 129.933594 L 244.09375 130.015625 C 244.175781 130.179688 244.257812 130.261719 244.339844 130.425781 C 244.421875 130.589844 244.503906 130.753906 244.503906 130.835938 L 244.667969 131.328125 C 244.832031 131.984375 244.832031 132.640625 244.667969 133.292969 C 244.667969 133.457031 244.585938 133.621094 244.503906 133.785156 C 244.421875 133.949219 244.421875 134.113281 244.339844 134.195312 L 244.09375 134.605469 C 244.011719 134.769531 243.929688 134.851562 243.847656 135.015625 C 243.191406 136 242.367188 136.738281 241.464844 137.394531 C 239.65625 138.625 237.761719 139.445312 235.789062 140.101562 L 236.367188 139.117188 C 236.367188 139.199219 236.367188 139.199219 236.367188 139.28125 C 236.367188 139.363281 236.367188 139.363281 236.367188 139.445312 C 236.367188 139.527344 236.367188 139.609375 236.367188 139.691406 C 236.367188 139.855469 236.367188 140.019531 236.285156 140.183594 C 236.203125 140.507812 236.203125 140.835938 236.039062 141.164062 C 235.789062 141.820312 235.542969 142.476562 235.050781 142.96875 C 234.96875 143.132812 234.804688 143.214844 234.722656 143.378906 L 234.394531 143.707031 C 234.226562 143.789062 234.144531 143.953125 233.980469 144.035156 L 233.570312 144.28125 C 233.40625 144.363281 233.324219 144.445312 233.160156 144.527344 L 232.75 144.773438 C 232.417969 144.9375 232.171875 145.019531 231.84375 145.101562 C 231.679688 145.183594 231.433594 145.101562 231.351562 144.855469 C 231.269531 144.691406 231.351562 144.527344 231.515625 144.445312 C 231.761719 144.28125 232.007812 144.117188 232.253906 143.953125 L 232.585938 143.707031 C 232.667969 143.625 232.832031 143.542969 232.914062 143.460938 L 233.242188 143.214844 C 233.324219 143.132812 233.40625 142.96875 233.488281 142.886719 L 233.652344 142.722656 L 233.734375 142.558594 C 233.816406 142.476562 233.898438 142.3125 233.980469 142.230469 C 234.226562 141.820312 234.394531 141.328125 234.558594 140.753906 C 234.640625 140.507812 234.640625 140.265625 234.640625 140.019531 C 234.640625 139.855469 234.640625 139.773438 234.640625 139.609375 C 234.640625 139.527344 234.640625 139.527344 234.640625 139.445312 C 234.640625 139.445312 234.640625 139.363281 234.640625 139.363281 C 234.640625 139.363281 234.640625 139.28125 234.640625 139.28125 C 234.476562 139.363281 234.3125 139.28125 234.226562 139.035156 C 234.144531 138.871094 234.226562 138.707031 234.394531 138.625 L 235.214844 138.296875 L 236.53125 137.722656 C 236.941406 137.558594 237.351562 137.3125 237.847656 137.066406 C 238.257812 136.820312 238.667969 136.574219 239.078125 136.328125 L 239.65625 135.917969 L 239.984375 135.753906 L 240.230469 135.507812 C 240.96875 134.933594 241.628906 134.359375 242.039062 133.703125 C 242.449219 133.050781 242.613281 132.3125 242.53125 131.65625 C 242.53125 131.574219 242.449219 131.492188 242.449219 131.410156 C 242.449219 131.328125 242.367188 131.246094 242.367188 131.164062 C 242.367188 131.082031 242.285156 131 242.285156 130.917969 L 242.285156 130.835938 C 242.285156 130.835938 242.285156 130.753906 242.285156 130.835938 C 242.203125 130.753906 242.121094 130.671875 241.957031 130.671875 C 241.875 130.671875 241.792969 130.589844 241.710938 130.589844 L 241.464844 130.507812 C 240.640625 130.261719 239.65625 130.179688 238.75 130.179688 C 236.859375 130.097656 234.804688 130.179688 232.832031 130.179688 C 232.667969 130.179688 232.503906 130.015625 232.503906 129.851562 C 232.253906 129.933594 232.417969 129.769531 232.585938 129.6875 Z M 232.585938 129.6875 " fill-opacity="1" fill-rule="nonzero"/><g fill="#000000" fill-opacity="1"><g transform="translate(108.817967, 286.112604)"><g><path d="M 21.824219 -14.753906 C 20.902344 -9.296875 19.058594 -6.300781 15.136719 -6.300781 C 8.222656 -6.300781 7.609375 -15.523438 7.609375 -31.046875 C 7.609375 -46.566406 8.222656 -55.175781 15.136719 -55.175781 C 19.132812 -55.175781 20.980469 -52.253906 21.824219 -46.722656 L 28.046875 -46.722656 C 26.433594 -57.558594 22.59375 -61.476562 15.136719 -61.476562 C 4.765625 -61.476562 1.304688 -54.023438 1.304688 -31.046875 C 1.304688 -7.992188 4.765625 0 15.136719 0 C 22.515625 0 26.359375 -4.074219 27.972656 -14.753906 Z M 21.824219 -14.753906 "/></g></g></g><g fill="#000000" fill-opacity="1"><g transform="translate(138.247661, 286.112604)"><g><path d="M 30.046875 0 C 29.738281 -0.308594 29.585938 -0.84375 29.585938 -1.152344 C 25.4375 -19.519531 21.746094 -40.574219 19.289062 -59.324219 C 19.210938 -60.015625 18.980469 -61.015625 19.363281 -61.476562 L 19.210938 -61.476562 C 17.058594 -61.476562 12.988281 -61.476562 12.140625 -61.476562 L 11.988281 -61.476562 C 12.371094 -61.015625 12.140625 -60.015625 12.066406 -59.324219 C 9.605469 -40.574219 5.917969 -19.519531 1.765625 -1.152344 C 1.691406 -0.84375 1.613281 -0.308594 1.304688 0 L 8.605469 0 C 8.375 -0.539062 8.53125 -1.460938 8.605469 -1.921875 C 9.453125 -7.222656 10.605469 -14.753906 12.066406 -23.4375 C 14.214844 -23.285156 16.675781 -23.207031 19.289062 -23.4375 C 20.75 -14.753906 21.902344 -7.222656 22.667969 -1.921875 C 22.746094 -1.460938 22.898438 -0.539062 22.746094 0 Z M 13.140625 -29.816406 C 13.910156 -34.273438 14.753906 -38.882812 15.675781 -43.726562 C 16.597656 -38.960938 17.367188 -34.273438 18.136719 -29.894531 C 16.523438 -29.664062 14.832031 -29.664062 13.140625 -29.816406 Z M 13.140625 -29.816406 "/></g></g></g><g fill="#000000" fill-opacity="1"><g transform="translate(169.675183, 286.112604)"><g><path d="M 34.964844 0 C 34.425781 -0.308594 34.195312 -0.613281 34.195312 -1 C 31.8125 -13.21875 29.96875 -18.136719 25.589844 -24.898438 C 29.507812 -27.585938 33.121094 -32.964844 33.121094 -43.109375 C 33.121094 -60.554688 21.363281 -62.089844 16.136719 -62.089844 C 11.527344 -62.089844 4.378906 -61.785156 2.765625 -61.015625 C 3.074219 -60.324219 3.152344 -59.632812 3.152344 -59.015625 C 3.382812 -55.40625 3.6875 -44.953125 3.6875 -29.738281 C 3.6875 -10.835938 3.152344 -4.996094 3.152344 -4.304688 C 3.074219 -2.765625 2.996094 -0.84375 2.691406 0 L 10.910156 0 C 10.679688 -0.84375 10.375 -2.613281 10.296875 -4.378906 C 10.144531 -8.992188 10.066406 -21.671875 10.296875 -23.285156 C 11.605469 -22.824219 14.90625 -22.285156 18.058594 -22.285156 L 18.671875 -22.285156 C 23.515625 -15.597656 26.433594 -7.222656 26.433594 -0.84375 C 26.433594 -0.691406 26.359375 -0.308594 26.050781 0 Z M 10.066406 -42.1875 C 10.066406 -49.566406 10.21875 -53.332031 10.296875 -54.097656 C 11.140625 -54.714844 14.214844 -54.867188 15.90625 -54.867188 C 18.75 -54.867188 25.742188 -55.097656 25.742188 -43.03125 C 25.742188 -30.96875 20.363281 -29.199219 17.289062 -29.199219 C 14.753906 -29.199219 11.910156 -29.585938 10.296875 -30.429688 C 10.21875 -31.351562 10.066406 -35.195312 10.066406 -42.1875 Z M 10.066406 -42.1875 "/></g></g></g><g fill="#000000" fill-opacity="1"><g transform="translate(206.020461, 286.112604)"><g><path d="M 22.4375 -7.222656 L 10.527344 -7.222656 C 10.296875 -11.757812 10.21875 -20.132812 10.527344 -26.972656 L 15.597656 -26.972656 C 17.289062 -26.972656 19.058594 -26.589844 19.980469 -26.359375 C 19.980469 -27.28125 19.980469 -29.046875 19.980469 -30.585938 L 19.980469 -34.8125 C 19.058594 -34.503906 17.289062 -34.121094 15.597656 -34.121094 L 10.527344 -34.121094 C 10.527344 -35.886719 10.375 -35.964844 10.375 -43.496094 C 10.375 -48.796875 10.449219 -52.792969 10.527344 -54.328125 L 22.363281 -54.328125 C 24.128906 -54.328125 25.898438 -53.945312 26.742188 -53.636719 C 26.742188 -54.558594 26.742188 -56.328125 26.742188 -57.863281 L 26.742188 -62.089844 C 25.898438 -61.859375 24.128906 -61.476562 22.363281 -61.476562 L 11.140625 -61.476562 C 10.21875 -61.476562 8.453125 -61.476562 6.917969 -61.476562 L 2.691406 -61.476562 C 2.996094 -60.628906 3.382812 -58.863281 3.382812 -57.097656 C 3.382812 -54.484375 3.457031 -46.796875 3.457031 -35.117188 C 3.457031 -12.832031 3.382812 -4.996094 3.382812 -4.304688 C 3.382812 -2.84375 3.226562 -0.84375 2.921875 0 L 3.152344 0 C 3.382812 0 3.765625 0 4.304688 0 L 22.4375 0 C 24.207031 0 25.972656 0.382812 26.894531 0.613281 C 26.894531 -0.308594 26.894531 -2.074219 26.894531 -3.613281 L 26.894531 -7.839844 C 25.972656 -7.609375 24.207031 -7.222656 22.4375 -7.222656 Z M 22.4375 -7.222656 "/></g></g></g><g fill="#000000" fill-opacity="1"><g transform="translate(234.297551, 286.112604)"><g><path d="M 0 -33.734375 C 0.308594 -32.503906 0.230469 -29.585938 0 -27.664062 C 4.304688 -27.894531 13.449219 -27.816406 18.058594 -27.664062 C 17.828125 -29.96875 17.90625 -31.890625 18.058594 -33.734375 C 12.140625 -33.582031 3.917969 -33.734375 0 -33.734375 Z M 0 -33.734375 "/></g></g></g><g fill="#000000" fill-opacity="1"><g transform="translate(252.35493, 286.112604)"><g><path d="M 10.527344 -57.097656 C 10.527344 -58.863281 10.910156 -60.628906 11.140625 -61.476562 C 10.21875 -61.476562 8.453125 -61.476562 6.917969 -61.476562 L 2.691406 -61.476562 C 2.996094 -60.628906 3.382812 -58.863281 3.382812 -57.097656 C 3.535156 -55.175781 3.765625 -47.105469 3.765625 -31.8125 C 3.765625 -8.300781 3.382812 -4.917969 3.382812 -4.304688 C 3.382812 -2.765625 3.226562 -0.84375 2.921875 0 C 3.6875 0 5.300781 0 6.917969 0 L 10.910156 0 C 10.605469 -0.84375 10.527344 -2.765625 10.527344 -4.304688 C 10.527344 -4.609375 10.144531 -18.519531 10.144531 -31.8125 C 10.144531 -46.414062 10.375 -54.789062 10.527344 -57.097656 Z M 10.527344 -57.097656 "/></g></g></g></svg>