<svg xmlns="http://www.w3.org/2000/svg" xmlns:xlink="http://www.w3.org/1999/xlink" width="500" zoomAndPan="magnify" viewBox="0 0 375 374.999991" height="500" preserveAspectRatio="xMidYMid meet" version="1.0"><defs><g/><clipPath id="id1"><path d="M 112.5 126.1875 L 262.5 126.1875 L 262.5 249.1875 L 112.5 249.1875 Z M 112.5 126.1875 " clip-rule="nonzero"/></clipPath></defs><g clip-path="url(#id1)"><path fill="#100f0d" d="M 261.847656 163.117188 C 261.730469 162.976562 260.761719 162.175781 260.363281 161.972656 C 260.363281 161.96875 260.363281 161.96875 260.363281 161.96875 C 260.25 161.910156 260.132812 161.855469 260.015625 161.804688 C 258.851562 161.289062 255.796875 159.976562 255.453125 159.792969 C 255.046875 159.582031 253.988281 159.035156 253.859375 158.976562 C 253.734375 158.914062 247.824219 157.835938 247.742188 157.839844 C 247.578125 157.847656 247.414062 157.855469 247.253906 157.867188 C 246.761719 157.90625 246.269531 157.960938 245.777344 158.035156 C 245.738281 158.042969 244.574219 158.167969 244.070312 158.328125 C 244.03125 158.339844 243.996094 158.351562 243.960938 158.363281 C 243.765625 158.433594 243.570312 158.507812 243.375 158.578125 C 242.511719 158.894531 239.804688 159.980469 239.308594 160.199219 C 238.335938 160.632812 237.320312 161.082031 236.472656 161.714844 C 236.382812 161.78125 236.292969 161.851562 236.203125 161.925781 C 236.066406 162.042969 235.921875 162.152344 235.773438 162.25 C 235.65625 162.332031 235.535156 162.40625 235.410156 162.480469 C 234.832031 162.828125 234.222656 163.121094 233.683594 163.542969 C 233.625 163.585938 233.570312 163.632812 233.511719 163.679688 C 233.457031 163.726562 233.402344 163.777344 233.351562 163.828125 C 232.730469 164.414062 231.851562 164.765625 231.027344 165.085938 C 230.96875 165.109375 230.914062 165.128906 230.859375 165.152344 C 230.105469 165.445312 229.320312 165.652344 228.546875 165.890625 C 228.46875 165.914062 227.703125 166.167969 227.402344 166.289062 C 227.328125 166.320312 227.253906 166.351562 227.179688 166.382812 C 227.011719 166.457031 226.847656 166.507812 226.6875 166.539062 C 225.5625 166.765625 223.492188 165.589844 223.40625 165.503906 C 223.242188 165.328125 222.265625 164.300781 222.09375 164.132812 C 221.339844 163.386719 220.328125 161.757812 220.527344 161.667969 C 220.792969 161.550781 221.0625 161.433594 221.328125 161.320312 C 222.050781 161.003906 224.664062 159.816406 225.234375 159.511719 C 225.996094 159.109375 226.671875 158.46875 227.261719 157.824219 C 228.539062 156.4375 229.621094 152.078125 229.628906 151.671875 C 229.628906 151.671875 229.628906 151.667969 229.628906 151.667969 C 229.628906 151.480469 229.617188 151.296875 229.585938 151.125 C 229.445312 150.347656 229.402344 149.566406 229.347656 148.785156 C 229.34375 148.769531 229.34375 148.753906 229.34375 148.742188 C 229.335938 148.65625 229.332031 148.574219 229.324219 148.492188 C 229.320312 148.472656 229.320312 148.457031 229.320312 148.441406 C 229.304688 148.257812 229.289062 148.074219 229.269531 147.890625 C 229.25 147.738281 229.234375 147.582031 229.210938 147.429688 C 229.203125 147.378906 229.160156 147.085938 229.140625 146.988281 C 229.132812 146.9375 229.121094 146.886719 229.113281 146.839844 C 229.082031 146.691406 229.050781 146.542969 229.011719 146.394531 C 228.675781 145.066406 227.257812 142.132812 227.117188 141.859375 C 227.019531 141.667969 226.910156 141.484375 226.800781 141.300781 C 226.769531 141.246094 226.734375 141.191406 226.703125 141.136719 C 226.523438 140.851562 226.335938 140.566406 226.160156 140.277344 C 226.136719 140.242188 226.117188 140.207031 226.09375 140.171875 C 226.050781 140.101562 226.015625 140.027344 225.980469 139.953125 C 225.953125 139.898438 225.773438 139.542969 225.679688 139.445312 C 225.523438 139.28125 224.765625 138.554688 224.53125 138.371094 C 224.472656 138.324219 224.414062 138.277344 224.355469 138.234375 C 222.921875 137.164062 221.476562 136.105469 220.011719 135.078125 C 218.316406 133.894531 216.476562 132.984375 214.570312 132.191406 C 213.34375 131.679688 207.898438 129.289062 206.320312 128.878906 C 205.4375 128.648438 198.976562 127.121094 196.621094 126.625 C 196.460938 126.59375 196.304688 126.558594 196.148438 126.527344 C 195.238281 126.335938 193.21875 126.203125 193.136719 126.207031 C 192.796875 126.222656 192.460938 126.257812 192.121094 126.324219 C 192.097656 126.328125 192.070312 126.332031 192.046875 126.335938 C 191.855469 126.378906 191.425781 126.492188 191.402344 126.496094 C 191.257812 126.523438 191.117188 126.546875 190.972656 126.542969 C 189.855469 126.535156 188.777344 126.664062 187.730469 126.945312 C 186.988281 127.144531 186.261719 127.421875 185.554688 127.777344 C 184.871094 128.117188 184.539062 128.945312 185.019531 129.546875 C 185.027344 129.558594 185.035156 129.570312 185.046875 129.582031 C 185.28125 129.871094 186.136719 130.539062 186.273438 130.605469 C 186.453125 130.695312 188.289062 131.46875 188.492188 131.550781 C 188.828125 131.6875 189.167969 131.824219 189.5 131.972656 C 189.71875 132.070312 192.503906 133.550781 193.566406 134.363281 C 193.804688 134.546875 197.964844 138.648438 198.066406 138.808594 C 198.335938 139.21875 199.824219 141.09375 200.304688 141.617188 C 200.976562 142.34375 201.660156 143.058594 202.363281 143.753906 C 202.472656 143.863281 202.578125 143.96875 202.6875 144.078125 C 203.347656 144.71875 204.992188 145.835938 205.039062 145.875 C 206.066406 146.632812 207.089844 147.394531 208.121094 148.144531 C 208.339844 148.304688 208.558594 148.460938 208.773438 148.621094 C 209.128906 148.878906 209.496094 149.121094 209.863281 149.363281 C 210.507812 149.796875 212.234375 151.289062 212.378906 151.582031 C 212.394531 151.613281 212.410156 151.648438 212.425781 151.679688 C 212.734375 152.394531 212.550781 153.136719 211.671875 153.691406 C 211.316406 153.917969 210.867188 153.988281 210.457031 154.132812 C 210.390625 154.15625 210.308594 154.171875 210.234375 154.191406 C 210.222656 154.191406 210.214844 154.195312 210.207031 154.199219 C 210.1875 154.203125 210.171875 154.210938 210.15625 154.214844 C 210.121094 154.234375 210.089844 154.253906 210.078125 154.28125 C 210.074219 154.296875 210.066406 154.308594 210.058594 154.324219 C 210.03125 154.382812 210 154.429688 209.96875 154.46875 C 209.765625 154.714844 207.632812 153.875 206.820312 153.671875 C 206.273438 153.535156 205.726562 153.398438 205.183594 153.25 C 205.101562 153.226562 204.804688 153.140625 204.730469 153.121094 C 203.8125 152.847656 201.546875 151.695312 201.289062 151.527344 C 201.253906 151.503906 201.214844 151.480469 201.175781 151.457031 C 201.101562 151.410156 198.273438 150.65625 197.285156 150.457031 C 196.988281 150.398438 194.070312 149.582031 193.777344 149.488281 C 193.667969 149.453125 193.296875 149.351562 193.226562 149.335938 C 193.15625 149.316406 193.085938 149.300781 193.015625 149.289062 C 192.925781 149.269531 192.835938 149.253906 192.742188 149.242188 C 191.585938 149.085938 190.402344 149.144531 189.242188 149.015625 C 187.691406 148.839844 184.054688 149 183.777344 149.035156 C 183.359375 149.085938 182.941406 149.148438 182.519531 149.222656 C 182.359375 149.253906 180.945312 149.496094 180.402344 149.601562 C 178.324219 150 176.246094 150.386719 174.179688 150.824219 C 174.085938 150.84375 173.992188 150.871094 173.902344 150.90625 C 173.832031 150.929688 173.765625 150.953125 173.699219 150.984375 C 173.628906 151.011719 173.558594 151.042969 173.488281 151.074219 C 173.441406 151.09375 173.394531 151.117188 173.347656 151.136719 C 173.050781 151.269531 172.753906 151.402344 172.445312 151.433594 C 170.714844 151.617188 169.285156 152.5 167.828125 153.292969 C 167.570312 153.433594 167.308594 153.574219 167.042969 153.707031 C 165.265625 154.59375 163.550781 155.605469 161.832031 156.605469 C 161.707031 156.675781 155.410156 160.503906 155.375 160.519531 C 155.355469 160.527344 155.179688 160.605469 155.109375 160.636719 C 154.871094 160.746094 152.203125 162.957031 152.164062 162.988281 C 152.15625 162.996094 152.148438 163 152.15625 163.023438 C 151.816406 163.246094 149.261719 164.914062 149.265625 164.921875 C 149.265625 164.929688 149.269531 164.9375 149.273438 164.941406 C 149.175781 164.996094 145.160156 168.4375 144.882812 168.699219 C 144.871094 168.710938 144.855469 168.722656 144.84375 168.738281 C 144.699219 168.871094 144.554688 169.003906 144.414062 169.140625 C 144.144531 169.398438 143.863281 169.648438 143.59375 169.910156 C 143.507812 169.992188 143.421875 170.074219 143.339844 170.160156 C 143.28125 170.21875 143.226562 170.265625 143.167969 170.296875 C 143.148438 170.308594 143.125 170.316406 143.101562 170.324219 C 143.09375 170.328125 143.085938 170.332031 143.082031 170.332031 C 143.019531 170.347656 142.960938 170.347656 142.898438 170.332031 C 142.820312 170.3125 142.738281 170.265625 142.648438 170.191406 C 142.027344 169.679688 141.421875 169.132812 140.742188 168.710938 C 140.449219 168.527344 140.15625 168.34375 139.859375 168.164062 C 139.324219 167.84375 137.058594 166.871094 136.667969 166.761719 C 135.386719 166.398438 132.480469 166.464844 132.363281 166.488281 C 131.523438 166.644531 130.65625 166.714844 129.847656 166.972656 C 129.585938 167.054688 129.328125 167.144531 129.074219 167.234375 C 128.148438 167.566406 125.082031 168.796875 124.460938 169.050781 C 124.273438 169.128906 124.082031 169.207031 123.898438 169.292969 C 123.78125 169.34375 122.96875 169.765625 122.695312 169.949219 C 122.414062 170.136719 122.132812 170.320312 121.84375 170.496094 C 121.335938 170.808594 120.820312 171.101562 120.296875 171.375 C 119.710938 171.683594 119.113281 171.964844 118.5 172.234375 C 117.714844 172.574219 115.082031 174.007812 114.527344 174.324219 C 114.128906 174.550781 113.734375 174.792969 113.398438 175.097656 C 113.355469 175.132812 113.3125 175.171875 113.273438 175.210938 C 112.988281 175.492188 112.75 175.820312 112.585938 176.230469 C 112.523438 176.378906 112.5 176.511719 112.503906 176.625 C 112.503906 176.628906 112.507812 176.628906 112.507812 176.632812 C 112.523438 176.878906 112.683594 177.039062 112.941406 177.109375 C 113.578125 177.277344 114.222656 177.417969 114.867188 177.539062 C 115.160156 177.59375 117.214844 177.917969 117.949219 178.019531 C 119 178.171875 120.050781 178.320312 121.097656 178.503906 C 121.632812 178.597656 122.164062 178.722656 122.683594 178.886719 C 122.726562 178.898438 122.773438 178.914062 122.816406 178.929688 C 123.476562 179.148438 126.300781 180.960938 127.09375 181.539062 C 127.417969 181.777344 127.738281 182.015625 128.0625 182.25 C 128.472656 182.554688 130.050781 183.65625 130.445312 183.855469 C 130.503906 183.886719 130.566406 183.917969 130.625 183.945312 C 130.714844 183.988281 130.800781 184.027344 130.890625 184.066406 C 130.945312 184.089844 131 184.113281 131.058594 184.136719 C 131.160156 184.179688 131.261719 184.222656 131.367188 184.261719 C 131.441406 184.289062 131.515625 184.3125 131.59375 184.339844 C 132.601562 184.683594 133.667969 184.851562 134.765625 184.890625 C 134.839844 184.894531 134.914062 184.898438 134.988281 184.898438 C 135.347656 184.90625 135.703125 184.78125 136.15625 184.683594 C 136.199219 184.675781 136.246094 184.664062 136.292969 184.65625 C 136.199219 185.410156 136.113281 186.136719 136.027344 186.84375 C 136.015625 186.957031 136 187.074219 135.984375 187.1875 C 135.96875 187.332031 135.949219 187.480469 135.929688 187.625 C 135.902344 187.867188 135.871094 188.105469 135.839844 188.34375 C 135.835938 188.378906 135.824219 188.414062 135.808594 188.449219 C 135.773438 188.527344 135.71875 188.601562 135.664062 188.621094 C 135.664062 188.621094 135.660156 188.621094 135.660156 188.621094 C 135.585938 188.644531 135.511719 188.667969 135.433594 188.683594 C 135.433594 188.6875 135.433594 188.6875 135.429688 188.6875 C 135.394531 188.695312 135.359375 188.703125 135.320312 188.710938 C 135.292969 188.71875 135.265625 188.726562 135.238281 188.730469 C 134.964844 188.792969 134.6875 188.847656 134.441406 188.972656 C 134.308594 189.035156 134.175781 189.101562 134.042969 189.167969 C 133.582031 189.398438 133.125 189.640625 132.710938 189.933594 C 132.605469 190.007812 132.5 190.089844 132.402344 190.171875 C 132.207031 190.335938 132.023438 190.511719 131.847656 190.699219 C 131.453125 191.117188 131.09375 191.585938 130.746094 192.042969 C 130.546875 192.304688 130.347656 192.570312 130.148438 192.832031 C 129.632812 193.527344 129.132812 194.230469 128.703125 194.976562 C 128.636719 195.085938 128.585938 195.191406 128.546875 195.28125 C 128.488281 195.433594 128.472656 195.558594 128.527344 195.664062 C 128.53125 195.671875 128.535156 195.675781 128.539062 195.683594 C 128.542969 195.6875 128.542969 195.691406 128.546875 195.695312 C 128.636719 195.828125 128.851562 195.925781 129.246094 195.996094 C 129.921875 196.121094 130.597656 196.269531 131.261719 196.445312 C 131.667969 196.550781 132.066406 196.667969 132.464844 196.789062 C 134 197.261719 135.472656 198.003906 137.144531 197.710938 C 137.242188 197.695312 137.339844 197.675781 137.4375 197.652344 C 137.449219 197.648438 137.464844 197.644531 137.476562 197.644531 C 137.558594 197.640625 137.660156 197.679688 137.761719 197.738281 C 137.933594 197.839844 138.109375 198 138.214844 198.140625 C 138.226562 198.160156 138.238281 198.179688 138.253906 198.199219 C 138.753906 198.882812 139.183594 199.621094 139.660156 200.324219 C 139.679688 200.351562 139.695312 200.378906 139.710938 200.40625 C 139.890625 200.695312 139.933594 200.894531 139.800781 201.03125 C 139.800781 201.035156 139.800781 201.035156 139.800781 201.035156 C 139.789062 201.046875 139.773438 201.058594 139.757812 201.070312 C 139.679688 201.128906 139.558594 201.175781 139.394531 201.210938 C 137.964844 201.511719 136.75 202.25 135.652344 203.128906 C 134.667969 203.917969 131.597656 207.195312 131.371094 207.464844 C 130.464844 208.53125 129.390625 209.347656 128.207031 209.996094 C 127.601562 210.328125 126.964844 210.617188 126.308594 210.871094 C 125.851562 211.046875 125.394531 211.214844 124.9375 211.382812 C 123.566406 211.886719 122.179688 212.359375 120.804688 212.855469 C 120.785156 212.863281 120.761719 212.871094 120.742188 212.878906 C 120.734375 212.882812 120.726562 212.886719 120.714844 212.890625 C 120.703125 212.894531 120.691406 212.898438 120.679688 212.90625 C 120.671875 212.910156 120.664062 212.910156 120.65625 212.914062 C 120.644531 212.921875 120.632812 212.925781 120.621094 212.929688 C 120.613281 212.933594 120.605469 212.9375 120.59375 212.941406 C 120.585938 212.949219 120.574219 212.953125 120.5625 212.957031 C 120.554688 212.960938 120.546875 212.96875 120.535156 212.972656 C 120.527344 212.976562 120.519531 212.980469 120.507812 212.984375 C 120.5 212.992188 120.464844 213.011719 120.457031 213.015625 C 120.449219 213.019531 120.445312 213.023438 120.4375 213.027344 C 120.429688 213.035156 120.417969 213.039062 120.410156 213.046875 C 120.402344 213.050781 120.394531 213.054688 120.386719 213.058594 C 120.378906 213.066406 120.371094 213.070312 120.363281 213.078125 C 120.355469 213.082031 120.347656 213.085938 120.339844 213.09375 C 120.332031 213.097656 120.324219 213.105469 120.316406 213.109375 C 120.3125 213.113281 120.304688 213.121094 120.300781 213.125 C 120.289062 213.132812 120.28125 213.136719 120.273438 213.144531 C 120.269531 213.148438 120.265625 213.152344 120.257812 213.160156 C 120.25 213.164062 120.242188 213.171875 120.234375 213.179688 C 120.230469 213.183594 120.222656 213.191406 120.21875 213.195312 C 120.210938 213.203125 120.203125 213.210938 120.199219 213.214844 C 120.191406 213.222656 120.1875 213.226562 120.183594 213.234375 C 120.175781 213.242188 120.167969 213.246094 120.164062 213.253906 C 120.15625 213.261719 120.152344 213.265625 120.148438 213.273438 C 120.140625 213.277344 120.136719 213.285156 120.128906 213.292969 C 120.125 213.300781 120.121094 213.304688 120.117188 213.3125 C 120.109375 213.320312 120.105469 213.328125 120.097656 213.335938 C 120.09375 213.339844 120.089844 213.347656 120.085938 213.355469 C 120.082031 213.363281 120.074219 213.371094 120.070312 213.378906 C 120.066406 213.386719 120.0625 213.390625 120.058594 213.398438 C 120.050781 213.40625 120.046875 213.414062 120.042969 213.421875 C 120.039062 213.429688 120.035156 213.4375 120.03125 213.445312 C 120.027344 213.453125 120.023438 213.460938 120.019531 213.46875 C 120.015625 213.476562 120.011719 213.484375 120.007812 213.492188 C 120.003906 213.5 120 213.507812 119.996094 213.515625 C 119.992188 213.523438 119.988281 213.53125 119.984375 213.539062 C 119.980469 213.546875 119.976562 213.558594 119.972656 213.566406 C 119.972656 213.574219 119.96875 213.582031 119.964844 213.589844 C 119.960938 213.597656 119.957031 213.609375 119.957031 213.617188 C 119.953125 213.625 119.949219 213.636719 119.949219 213.644531 C 119.945312 213.652344 119.941406 213.664062 119.9375 213.671875 C 119.9375 213.679688 119.933594 213.6875 119.929688 213.699219 C 119.929688 213.707031 119.925781 213.71875 119.921875 213.726562 C 119.921875 213.734375 119.917969 213.746094 119.917969 213.753906 C 119.914062 213.765625 119.910156 213.773438 119.910156 213.785156 C 119.90625 213.792969 119.90625 213.804688 119.90625 213.8125 C 119.902344 213.824219 119.898438 213.832031 119.898438 213.84375 C 119.894531 213.855469 119.894531 213.863281 119.894531 213.871094 C 119.890625 213.882812 119.890625 213.894531 119.886719 213.90625 C 119.886719 213.914062 119.886719 213.925781 119.882812 213.933594 C 119.882812 213.945312 119.882812 213.957031 119.878906 213.972656 C 119.878906 213.980469 119.878906 213.992188 119.875 214 C 119.875 214.011719 119.875 214.023438 119.871094 214.039062 C 119.871094 214.046875 119.871094 214.058594 119.871094 214.066406 C 119.871094 214.078125 119.867188 214.09375 119.867188 214.105469 C 119.867188 214.117188 119.867188 214.125 119.867188 214.136719 C 119.863281 214.148438 119.863281 214.164062 119.863281 214.175781 C 119.863281 214.1875 119.863281 214.199219 119.863281 214.207031 C 119.863281 214.222656 119.863281 214.234375 119.863281 214.25 C 119.863281 214.261719 119.863281 214.269531 119.863281 214.28125 C 119.863281 214.296875 119.859375 214.308594 119.859375 214.324219 C 119.859375 214.324219 119.859375 214.328125 119.859375 214.328125 C 119.863281 214.617188 120.542969 215.582031 120.773438 215.675781 C 120.78125 215.679688 120.785156 215.683594 120.792969 215.683594 C 120.847656 215.707031 120.898438 215.730469 120.953125 215.753906 C 120.953125 215.753906 120.957031 215.757812 120.960938 215.757812 C 121.011719 215.78125 121.066406 215.808594 121.117188 215.835938 C 121.121094 215.835938 121.125 215.839844 121.128906 215.839844 C 121.179688 215.867188 122.863281 216.859375 123.617188 217.109375 C 123.683594 217.132812 123.753906 217.152344 123.824219 217.171875 C 124.832031 217.441406 135.277344 219.144531 135.324219 219.148438 C 136.464844 219.238281 137.613281 219.308594 138.757812 219.324219 C 139.476562 219.335938 141.761719 219.199219 142.1875 219.117188 C 142.945312 218.96875 144.585938 218.445312 144.660156 218.417969 C 144.769531 218.378906 144.878906 218.34375 144.984375 218.304688 C 146.179688 217.894531 147.371094 217.453125 148.429688 216.757812 C 148.523438 216.695312 148.617188 216.628906 148.710938 216.558594 C 148.992188 216.355469 149.261719 216.132812 149.519531 215.878906 C 149.53125 215.867188 149.558594 215.863281 149.574219 215.851562 C 149.773438 215.648438 149.992188 215.464844 150.214844 215.285156 C 150.726562 214.871094 151.265625 214.492188 151.6875 213.992188 C 151.859375 213.792969 152.011719 213.574219 152.136719 213.324219 C 152.347656 212.90625 152.589844 212.828125 152.902344 212.9375 C 153 212.96875 153.109375 213.023438 153.222656 213.085938 C 153.632812 213.316406 154.046875 213.542969 154.464844 213.769531 C 155.222656 214.171875 155.984375 214.566406 156.75 214.957031 C 157.398438 215.289062 159.492188 216.316406 159.898438 216.46875 C 160.609375 216.738281 161.320312 216.996094 162.03125 217.25 C 163.644531 217.828125 165.265625 218.375 166.894531 218.910156 C 167.679688 219.164062 168.519531 219.28125 169.347656 219.386719 C 169.386719 219.390625 177.355469 220.1875 178.566406 220.398438 C 179.117188 220.496094 188.011719 220.527344 188.601562 220.445312 C 190.3125 220.203125 194.023438 220.125 194.144531 220.113281 C 194.148438 220.113281 196.480469 219.675781 196.777344 219.558594 C 197.863281 219.136719 203.460938 216.222656 205.222656 215.332031 C 205.535156 215.171875 209.542969 213.050781 209.675781 212.972656 C 209.859375 212.863281 213.054688 210.777344 214.375 209.714844 C 214.847656 209.332031 215.257812 208.878906 215.652344 208.40625 C 215.671875 208.386719 215.6875 208.367188 215.707031 208.347656 C 215.796875 208.234375 215.890625 208.125 215.984375 208.011719 C 216.035156 207.949219 216.085938 207.890625 216.136719 207.828125 C 216.386719 207.523438 216.640625 207.222656 216.914062 206.9375 C 217.105469 206.738281 217.296875 206.535156 217.488281 206.332031 C 218.539062 205.214844 219.558594 204.070312 220.371094 202.753906 C 220.425781 202.664062 220.480469 202.605469 220.539062 202.570312 C 220.550781 202.5625 220.5625 202.554688 220.574219 202.550781 C 220.628906 202.527344 220.691406 202.523438 220.753906 202.535156 C 220.824219 202.550781 220.898438 202.582031 220.980469 202.628906 C 221.648438 203 221.878906 203.675781 221.992188 204.328125 C 222.195312 205.480469 221.660156 207.855469 221.640625 207.910156 C 221.570312 208.113281 221.351562 208.746094 221.316406 208.859375 C 221.261719 209.019531 221.210938 209.179688 221.15625 209.339844 C 221.105469 209.5 218.859375 215.265625 218.382812 217.4375 C 218.339844 217.632812 218.300781 217.832031 218.265625 218.03125 C 217.925781 220.035156 217.175781 221.949219 216.984375 224 C 216.980469 224.066406 216.808594 226.027344 216.773438 226.367188 C 216.742188 226.6875 216.707031 227.007812 216.671875 227.328125 C 216.648438 227.539062 216.621094 227.753906 216.597656 227.96875 C 216.488281 228.886719 215.679688 234.085938 215.621094 234.375 C 215.542969 234.769531 215.4375 235.164062 215.332031 235.554688 C 215.230469 235.929688 215.023438 236.941406 215.007812 237.074219 C 214.90625 237.964844 214.585938 242.085938 214.449219 243.246094 C 214.355469 244.046875 214.335938 244.828125 214.421875 245.585938 C 214.5 246.25 214.664062 246.898438 214.929688 247.527344 C 215.007812 247.707031 215.089844 247.878906 215.179688 248.054688 C 215.222656 248.128906 215.265625 248.203125 215.3125 248.277344 C 215.316406 248.277344 215.316406 248.277344 215.316406 248.277344 C 215.359375 248.34375 215.40625 248.410156 215.457031 248.472656 C 215.507812 248.53125 215.558594 248.589844 215.613281 248.644531 C 215.617188 248.648438 215.617188 248.648438 215.617188 248.648438 C 215.6875 248.71875 215.765625 248.785156 215.84375 248.839844 C 215.882812 248.867188 215.921875 248.894531 215.964844 248.917969 C 215.976562 248.925781 215.992188 248.9375 216.003906 248.945312 C 216.28125 249.097656 216.605469 249.175781 216.980469 249.117188 C 218.199219 248.917969 219.203125 248.3125 220.058594 247.445312 C 220.214844 247.289062 220.371094 247.125 220.523438 246.957031 C 220.847656 246.601562 221.5 245.882812 221.503906 245.878906 C 221.601562 245.78125 221.699219 245.679688 221.796875 245.582031 C 221.847656 245.535156 221.898438 245.484375 221.949219 245.4375 C 222.050781 245.34375 222.15625 245.25 222.261719 245.160156 C 222.316406 245.113281 222.371094 245.070312 222.425781 245.027344 C 222.496094 244.96875 222.570312 244.910156 222.640625 244.851562 C 222.785156 244.730469 223.578125 243.964844 223.816406 243.691406 C 223.9375 243.554688 224.058594 243.417969 224.171875 243.277344 C 224.289062 243.136719 224.402344 242.996094 224.515625 242.851562 C 224.796875 242.496094 225.070312 242.128906 225.339844 241.765625 C 226.078125 240.773438 228.976562 236.703125 229.714844 235.6875 C 229.777344 235.597656 230.351562 234.753906 230.546875 234.410156 C 231.921875 232.007812 234.894531 225.890625 235.195312 225.347656 C 235.351562 225.0625 235.507812 224.78125 235.664062 224.5 C 235.695312 224.449219 236.316406 223.335938 236.597656 222.828125 C 236.773438 222.507812 236.949219 222.1875 237.121094 221.863281 C 237.761719 220.65625 238.425781 219.457031 239.027344 218.226562 C 239.25 217.769531 239.980469 216.074219 240.125 215.683594 C 240.449219 214.789062 240.726562 213.878906 241.007812 212.964844 C 241.09375 212.679688 241.183594 212.390625 241.273438 212.105469 C 241.824219 210.351562 242.125 208.574219 242.113281 206.792969 C 242.113281 206.792969 242.113281 206.789062 242.113281 206.785156 C 242.101562 205.570312 241.945312 204.351562 241.625 203.128906 C 241.300781 201.90625 240.847656 200.671875 240.214844 199.585938 C 240.167969 199.507812 240.117188 199.433594 240.066406 199.355469 C 239.539062 198.566406 238.761719 197.917969 238.082031 197.230469 C 236.816406 195.949219 235.382812 194.941406 233.78125 194.179688 C 233.738281 194.160156 233.699219 194.136719 233.65625 194.121094 C 233.566406 194.078125 233.476562 194.035156 233.386719 193.996094 C 233.039062 193.839844 232.679688 193.695312 232.3125 193.5625 C 232.261719 193.539062 232.207031 193.519531 232.152344 193.503906 C 230.988281 193.082031 229.816406 192.753906 228.605469 192.65625 C 228.382812 192.636719 228.15625 192.625 227.925781 192.625 C 227.757812 192.625 227.589844 192.628906 227.417969 192.636719 C 227.304688 192.640625 227.191406 192.648438 227.078125 192.660156 C 226.945312 192.671875 226.8125 192.664062 226.59375 192.664062 C 226.683594 192.292969 226.765625 191.933594 226.847656 191.585938 C 226.964844 191.070312 227.085938 190.570312 227.210938 190.078125 C 227.242188 189.949219 227.273438 189.820312 227.308594 189.695312 C 227.320312 189.652344 227.332031 189.613281 227.339844 189.570312 C 227.449219 189.171875 227.5625 188.773438 227.703125 188.382812 C 228.109375 187.226562 228.503906 186.058594 228.984375 184.933594 C 229.3125 184.164062 229.628906 183.375 230.621094 183.113281 C 231.820312 182.804688 241.898438 180.296875 242.429688 180.203125 C 242.84375 180.128906 245.273438 179.78125 246.054688 179.601562 C 246.128906 179.582031 246.207031 179.5625 246.28125 179.546875 C 246.335938 179.53125 246.394531 179.515625 246.449219 179.503906 C 247.648438 179.1875 248.792969 178.730469 249.890625 178.148438 C 250.167969 178 250.445312 177.84375 250.722656 177.675781 C 250.816406 177.621094 250.914062 177.5625 251.011719 177.503906 C 252.46875 176.648438 257.089844 173.582031 257.890625 172.839844 C 258.066406 172.675781 258.242188 172.507812 258.414062 172.339844 C 258.839844 171.910156 259.253906 171.464844 259.640625 170.992188 C 260.570312 169.855469 262.101562 167.117188 262.140625 167 C 262.277344 166.578125 262.378906 166.136719 262.429688 165.671875 C 262.496094 165.035156 262.007812 163.3125 261.847656 163.117188 " fill-opacity="1" fill-rule="nonzero"/></g><g fill="#ffffff" fill-opacity="1"><g transform="translate(143.739405, 198.396985)"><g><path d="M 30.421875 -19.09375 C 30.359375 -19.070312 30.289062 -19.054688 30.21875 -19.046875 C 30.144531 -19.046875 30.070312 -19.066406 30 -19.109375 C 29.914062 -19.171875 29.867188 -19.238281 29.859375 -19.3125 C 29.859375 -19.382812 29.878906 -19.445312 29.921875 -19.5 C 30.367188 -20.582031 30.722656 -21.703125 30.984375 -22.859375 C 31.160156 -23.578125 31.300781 -24.304688 31.40625 -25.046875 C 31.46875 -25.503906 31.40625 -25.984375 31.21875 -26.484375 C 31.007812 -26.992188 30.613281 -27.316406 30.03125 -27.453125 C 29.601562 -27.535156 29.175781 -27.546875 28.75 -27.484375 C 28.675781 -27.472656 28.601562 -27.460938 28.53125 -27.453125 C 27.625 -27.265625 26.769531 -26.988281 25.96875 -26.625 C 24.5625 -26.019531 23.21875 -25.335938 21.9375 -24.578125 C 20.65625 -23.828125 19.410156 -23.035156 18.203125 -22.203125 C 12.921875 -18.441406 8.363281 -14.050781 4.53125 -9.03125 C 3.550781 -7.8125 2.734375 -6.492188 2.078125 -5.078125 C 1.859375 -4.585938 1.675781 -4.066406 1.53125 -3.515625 C 1.457031 -3.222656 1.421875 -2.90625 1.421875 -2.5625 C 1.398438 -1.488281 1.976562 -0.785156 3.15625 -0.453125 C 4.15625 -0.179688 5.132812 -0.0976562 6.09375 -0.203125 C 6.851562 -0.265625 7.582031 -0.359375 8.28125 -0.484375 C 8.613281 -0.535156 8.9375 -0.601562 9.25 -0.6875 C 13.738281 -1.488281 17.890625 -2.78125 21.703125 -4.5625 C 21.765625 -4.59375 21.832031 -4.617188 21.90625 -4.640625 C 22.144531 -4.773438 22.410156 -4.894531 22.703125 -5 C 22.773438 -5.03125 22.898438 -5.066406 23.078125 -5.109375 C 23.253906 -5.148438 23.425781 -5.164062 23.59375 -5.15625 C 23.757812 -5.15625 23.875 -5.09375 23.9375 -4.96875 C 23.957031 -4.90625 23.953125 -4.851562 23.921875 -4.8125 C 23.898438 -4.78125 23.859375 -4.753906 23.796875 -4.734375 C 23.554688 -4.628906 23.328125 -4.523438 23.109375 -4.421875 C 22.410156 -4.109375 21.71875 -3.804688 21.03125 -3.515625 C 17.15625 -1.785156 13.035156 -0.578125 8.671875 0.109375 C 7.765625 0.265625 6.851562 0.394531 5.9375 0.5 C 4.925781 0.625 3.882812 0.582031 2.8125 0.375 C 0.644531 -0.0703125 -0.28125 -1.25 0.03125 -3.15625 C 0.15625 -3.90625 0.394531 -4.628906 0.75 -5.328125 C 1.226562 -6.316406 1.78125 -7.257812 2.40625 -8.15625 C 3.039062 -9.050781 3.710938 -9.925781 4.421875 -10.78125 C 7.554688 -14.644531 11.132812 -18.101562 15.15625 -21.15625 C 16.394531 -22.09375 17.660156 -22.984375 18.953125 -23.828125 C 20.253906 -24.679688 21.613281 -25.457031 23.03125 -26.15625 C 24.207031 -26.757812 25.4375 -27.273438 26.71875 -27.703125 C 27.238281 -27.867188 27.765625 -27.992188 28.296875 -28.078125 C 28.640625 -28.140625 28.988281 -28.1875 29.34375 -28.21875 C 29.757812 -28.25 30.1875 -28.234375 30.625 -28.171875 C 31.789062 -27.960938 32.472656 -27.328125 32.671875 -26.265625 C 32.753906 -25.796875 32.769531 -25.328125 32.71875 -24.859375 C 32.59375 -23.960938 32.394531 -23.09375 32.125 -22.25 C 31.863281 -21.40625 31.566406 -20.566406 31.234375 -19.734375 C 31.171875 -19.460938 31 -19.265625 30.71875 -19.140625 C 30.625 -19.109375 30.539062 -19.09375 30.46875 -19.09375 Z M 30.421875 -19.09375 "/></g></g></g><g fill="#ffffff" fill-opacity="1"><g transform="translate(168.722204, 194.243908)"><g><path d="M 5.609375 -5.515625 C 5.765625 -5.460938 5.8125 -5.28125 5.75 -4.96875 C 5.613281 -4.707031 5.460938 -4.460938 5.296875 -4.234375 C 5.140625 -4.003906 4.957031 -3.800781 4.75 -3.625 C 4.738281 -3.625 4.734375 -3.613281 4.734375 -3.59375 C 4.609375 -3.46875 4.460938 -3.351562 4.296875 -3.25 C 2.992188 -2.507812 2.234375 -2.679688 2.015625 -3.765625 C 1.515625 -3.191406 1.1875 -2.832031 1.03125 -2.6875 C 0.601562 -2.332031 0.117188 -2.125 -0.421875 -2.0625 C -0.804688 -2.019531 -1.09375 -2.097656 -1.28125 -2.296875 C -1.46875 -2.492188 -1.503906 -2.789062 -1.390625 -3.1875 C -1.242188 -3.820312 -0.96875 -4.414062 -0.5625 -4.96875 C -0.09375 -5.570312 0.457031 -6.082031 1.09375 -6.5 C 1.425781 -6.726562 1.785156 -6.851562 2.171875 -6.875 C 2.585938 -6.925781 2.867188 -6.75 3.015625 -6.34375 C 3.078125 -6.21875 3.066406 -6.09375 2.984375 -5.96875 C 2.867188 -5.832031 2.722656 -5.78125 2.546875 -5.8125 C 2.535156 -5.8125 2.519531 -5.8125 2.5 -5.8125 C 2.476562 -5.820312 2.460938 -5.832031 2.453125 -5.84375 C 2.234375 -6.050781 2.039062 -6.117188 1.875 -6.046875 C 1.71875 -5.984375 1.550781 -5.878906 1.375 -5.734375 C 0.550781 -5.054688 0 -4.210938 -0.28125 -3.203125 C -0.289062 -3.148438 -0.289062 -3.097656 -0.28125 -3.046875 C -0.28125 -2.992188 -0.265625 -2.957031 -0.234375 -2.9375 C -0.109375 -2.914062 0.0078125 -2.941406 0.125 -3.015625 C 0.238281 -3.097656 0.351562 -3.195312 0.46875 -3.3125 C 0.582031 -3.425781 0.675781 -3.523438 0.75 -3.609375 C 0.757812 -3.617188 0.765625 -3.625 0.765625 -3.625 C 1.128906 -4.0625 1.488281 -4.5 1.84375 -4.9375 C 1.976562 -5.15625 2.1875 -5.300781 2.46875 -5.375 C 2.851562 -5.4375 3.039062 -5.289062 3.03125 -4.9375 C 3.007812 -4.789062 2.992188 -4.660156 2.984375 -4.546875 C 2.921875 -3.953125 2.96875 -3.617188 3.125 -3.546875 C 3.28125 -3.484375 3.492188 -3.519531 3.765625 -3.65625 C 4.035156 -3.800781 4.289062 -4.035156 4.53125 -4.359375 C 4.78125 -4.679688 4.984375 -4.96875 5.140625 -5.21875 C 5.304688 -5.476562 5.460938 -5.578125 5.609375 -5.515625 Z M 5.609375 -5.515625 "/></g></g></g><g fill="#ffffff" fill-opacity="1"><g transform="translate(174.536032, 193.277432)"><g><path d="M 3.296875 -6.09375 C 3.316406 -5.675781 3.171875 -5.375 2.859375 -5.1875 C 2.554688 -5.007812 2.425781 -5.15625 2.46875 -5.625 C 2.507812 -6.09375 2.289062 -6.175781 1.8125 -5.875 C 1.332031 -5.570312 0.957031 -5.222656 0.6875 -4.828125 C 0.257812 -4.210938 -0.101562 -3.566406 -0.40625 -2.890625 C -0.4375 -2.835938 -0.457031 -2.796875 -0.46875 -2.765625 C -0.570312 -2.566406 -0.664062 -2.378906 -0.75 -2.203125 C -0.800781 -2.085938 -0.875 -2.007812 -0.96875 -1.96875 C -1.070312 -1.925781 -1.175781 -1.90625 -1.28125 -1.90625 C -1.382812 -1.894531 -1.46875 -1.914062 -1.53125 -1.96875 C -1.59375 -2.03125 -1.613281 -2.109375 -1.59375 -2.203125 C -1.550781 -2.367188 -1.503906 -2.539062 -1.453125 -2.71875 C -1.078125 -3.78125 -0.703125 -4.851562 -0.328125 -5.9375 C -0.316406 -5.945312 -0.3125 -5.957031 -0.3125 -5.96875 C -0.269531 -6.132812 -0.207031 -6.285156 -0.125 -6.421875 C -0.0195312 -6.578125 0.109375 -6.65625 0.265625 -6.65625 C 0.421875 -6.65625 0.535156 -6.582031 0.609375 -6.4375 C 0.710938 -6.25 0.789062 -6.144531 0.84375 -6.125 C 0.894531 -6.101562 1 -6.140625 1.15625 -6.234375 C 1.476562 -6.421875 1.800781 -6.566406 2.125 -6.671875 C 2.457031 -6.785156 2.734375 -6.820312 2.953125 -6.78125 C 3.171875 -6.738281 3.285156 -6.507812 3.296875 -6.09375 Z M 3.296875 -6.09375 "/></g></g></g><g fill="#ffffff" fill-opacity="1"><g transform="translate(178.920517, 192.548566)"><g><path d="M 4.421875 -4.203125 C 4.140625 -3.804688 3.796875 -3.453125 3.390625 -3.140625 C 2.984375 -2.828125 2.628906 -2.609375 2.328125 -2.484375 C 2.035156 -2.367188 1.734375 -2.28125 1.421875 -2.21875 C 0.910156 -2.09375 0.425781 -2.078125 -0.03125 -2.171875 C -0.78125 -2.347656 -1.117188 -2.863281 -1.046875 -3.71875 C -0.953125 -4.4375 -0.625 -5.046875 -0.0625 -5.546875 C 0.488281 -6.046875 1.109375 -6.34375 1.796875 -6.4375 C 1.796875 -6.4375 1.800781 -6.4375 1.8125 -6.4375 C 1.957031 -6.476562 2.113281 -6.492188 2.28125 -6.484375 C 2.550781 -6.429688 2.738281 -6.300781 2.84375 -6.09375 C 2.957031 -5.894531 2.953125 -5.660156 2.828125 -5.390625 C 2.546875 -4.765625 2.085938 -4.363281 1.453125 -4.1875 C 1.035156 -4.070312 0.625 -4.023438 0.21875 -4.046875 C 0.125 -4.046875 0.0507812 -4.007812 0 -3.9375 C -0.0390625 -3.875 -0.0546875 -3.804688 -0.046875 -3.734375 C -0.0859375 -3.203125 0.117188 -2.90625 0.578125 -2.84375 C 1.117188 -2.75 1.664062 -2.835938 2.21875 -3.109375 C 2.832031 -3.421875 3.382812 -3.910156 3.875 -4.578125 C 4.375 -5.253906 4.671875 -5.578125 4.765625 -5.546875 C 4.867188 -5.523438 4.914062 -5.421875 4.90625 -5.234375 C 4.875 -4.941406 4.710938 -4.597656 4.421875 -4.203125 Z M 0.46875 -4.984375 C 0.445312 -4.941406 0.429688 -4.890625 0.421875 -4.828125 C 0.410156 -4.773438 0.4375 -4.734375 0.5 -4.703125 C 0.726562 -4.628906 0.957031 -4.625 1.1875 -4.6875 C 1.414062 -4.757812 1.601562 -4.882812 1.75 -5.0625 C 1.894531 -5.25 1.9375 -5.441406 1.875 -5.640625 C 1.84375 -5.722656 1.789062 -5.769531 1.71875 -5.78125 C 1.65625 -5.789062 1.59375 -5.785156 1.53125 -5.765625 C 1.101562 -5.609375 0.75 -5.347656 0.46875 -4.984375 Z M 0.46875 -4.984375 "/></g></g></g><g fill="#ffffff" fill-opacity="1"><g transform="translate(184.024058, 191.700166)"><g><path d="M 3.609375 -4.515625 L 2.90625 -4.4375 C 2.1875 -4.332031 1.390625 -4.253906 0.515625 -4.203125 C 0.503906 -4.191406 0.492188 -4.195312 0.484375 -4.21875 C 0.460938 -4.21875 0.441406 -4.222656 0.421875 -4.234375 C 0.398438 -4.253906 0.390625 -4.300781 0.390625 -4.375 C 0.410156 -4.664062 0.488281 -4.828125 0.625 -4.859375 C 1.28125 -5.066406 1.941406 -5.226562 2.609375 -5.34375 L 3.03125 -5.4375 L 3.75 -5.546875 L 5.71875 -5.875 C 5.875 -5.90625 6.023438 -5.921875 6.171875 -5.921875 C 6.285156 -5.910156 6.328125 -5.765625 6.296875 -5.484375 C 6.253906 -5.203125 6.179688 -5.035156 6.078125 -4.984375 C 6.023438 -4.972656 5.96875 -4.960938 5.90625 -4.953125 L 5.5 -4.875 C 4.894531 -4.75 4.265625 -4.628906 3.609375 -4.515625 Z M 3.609375 -4.515625 "/></g></g></g><g fill="#ffffff" fill-opacity="1"><g transform="translate(191.854749, 190.398412)"><g><path d="M 20.25 -30.1875 C 20.019531 -29 19.757812 -27.8125 19.46875 -26.625 C 16.34375 -14.46875 13.660156 -4.035156 11.421875 4.671875 C 10.609375 4.953125 10.351562 4.488281 10.65625 3.28125 C 11.1875 0.644531 12.171875 -3.5625 13.609375 -9.34375 C 15.046875 -15.125 16.523438 -20.898438 18.046875 -26.671875 C 18.359375 -27.835938 18.628906 -29.015625 18.859375 -30.203125 C 18.859375 -30.253906 18.867188 -30.3125 18.890625 -30.375 C 18.929688 -30.582031 18.960938 -30.8125 18.984375 -31.0625 C 19.003906 -31.320312 18.972656 -31.582031 18.890625 -31.84375 C 18.523438 -31.726562 18.203125 -31.570312 17.921875 -31.375 C 17.847656 -31.320312 17.78125 -31.28125 17.71875 -31.25 C 15.0625 -29.582031 12.335938 -27.535156 9.546875 -25.109375 C 6.753906 -22.691406 4.382812 -20.265625 2.4375 -17.828125 C 2.019531 -17.296875 1.617188 -16.742188 1.234375 -16.171875 C 0.847656 -15.609375 0.503906 -15.019531 0.203125 -14.40625 C -0.148438 -13.726562 -0.375 -13.007812 -0.46875 -12.25 C -0.644531 -10.851562 -0.078125 -9.90625 1.234375 -9.40625 C 2.148438 -9.070312 3.03125 -8.894531 3.875 -8.875 C 4.726562 -8.851562 5.519531 -8.90625 6.25 -9.03125 C 6.988281 -9.164062 7.625 -9.316406 8.15625 -9.484375 C 8.375 -9.523438 8.566406 -9.566406 8.734375 -9.609375 C 8.828125 -9.648438 8.929688 -9.664062 9.046875 -9.65625 C 9.160156 -9.65625 9.269531 -9.609375 9.375 -9.515625 C 9.519531 -9.347656 9.367188 -9.179688 8.921875 -9.015625 C 8.484375 -8.847656 7.863281 -8.695312 7.0625 -8.5625 C 6.257812 -8.425781 5.394531 -8.335938 4.46875 -8.296875 C 2.832031 -8.242188 1.535156 -8.378906 0.578125 -8.703125 C -0.00390625 -8.867188 -0.519531 -9.164062 -0.96875 -9.59375 C -1.46875 -10.101562 -1.726562 -10.707031 -1.75 -11.40625 C -1.78125 -12.144531 -1.671875 -12.851562 -1.421875 -13.53125 C -0.992188 -14.632812 -0.429688 -15.660156 0.265625 -16.609375 C 1.472656 -18.316406 2.910156 -20.019531 4.578125 -21.71875 C 6.242188 -23.425781 8 -25.035156 9.84375 -26.546875 C 11.6875 -28.066406 13.460938 -29.421875 15.171875 -30.609375 C 15.960938 -31.128906 16.765625 -31.628906 17.578125 -32.109375 C 17.960938 -32.347656 18.375 -32.535156 18.8125 -32.671875 C 18.9375 -32.710938 19.050781 -32.734375 19.15625 -32.734375 C 19.988281 -32.910156 20.410156 -32.546875 20.421875 -31.640625 C 20.398438 -31.140625 20.34375 -30.65625 20.25 -30.1875 Z M 20.25 -30.1875 "/></g></g></g></svg>